<?xml version="1.0" encoding="UTF-8"?>
<svg xmlns="http://www.w3.org/2000/svg" xmlns:xlink="http://www.w3.org/1999/xlink" role="img" aria-labelledby="campaign-title campaign-description" width="1080" height="1920" viewBox="0 0 1080 1920">
<title id="campaign-title">Buy a bowl. Build with AI.</title>
<desc id="campaign-description">YGF Bowl-to-Build campaign creative with a public offer QR code. A private claim code is supplied only after a qualifying purchase.</desc>
<metadata data-renderer="ygf-campaign-v1" data-source="social-story-1080x1920" data-public-qr="https://build.ygf.example/offer?utm_source=social-story-1080x1920"/>
<defs><clipPath id="image-clip-6"><rect x="594" y="201.6" width="426.6" height="672" rx="34.56"/></clipPath></defs>
<rect x="0" y="0" width="1080" height="1920" fill="#F6F0E4"/>
<rect x="939.6" y="-96" width="216" height="384" rx="108" fill="#E8B94A"/>
<text x="70.2" y="122.88" fill="#D84A32" font-family="Inter, Avenir Next, Helvetica, Arial, sans-serif" font-size="28.08" font-weight="800" letter-spacing="4.212"><tspan x="70.2" dy="0">YGF BOWL-TO-BUILD</tspan></text>
<rect x="70.2" y="149.76" width="280.8" height="56.16" rx="28.08" fill="#D84A32"/>
<text x="94.068" y="187.387" fill="#FFFFFF" font-family="Inter, Avenir Next, Helvetica, Arial, sans-serif" font-size="19.375" font-weight="800" letter-spacing="2.246"><tspan x="94.068" dy="0">LIMITED-TIME OFFER</tspan></text>
<text x="70.2" y="318.72" fill="#16261F" font-family="Inter, Avenir Next, Helvetica, Arial, sans-serif" font-size="74.52" font-weight="800"><tspan x="70.2" dy="0">Buy a bowl.</tspan><tspan x="70.2" dy="76.01">Build with AI.</tspan></text>
<image href="../media/malatang-hero.png" x="594" y="201.6" width="426.6" height="672" preserveAspectRatio="xMidYMid slice" clip-path="url(#image-clip-6)"/>
<text x="70.2" y="614.4" fill="#667868" font-family="Inter, Avenir Next, Helvetica, Arial, sans-serif" font-size="28.08" font-weight="500"><tspan x="70.2" dy="0">Spend $25+ at YGF and unlock</tspan><tspan x="70.2" dy="37.908">limited Build Credits for</tspan><tspan x="70.2" dy="37.908">study help, coding help,</tspan><tspan x="70.2" dy="37.908">career tasks, and smarter</tspan><tspan x="70.2" dy="37.908">bowl picks.</tspan></text>
<text x="70.2" y="917.76" fill="#16261F" font-family="Inter, Avenir Next, Helvetica, Arial, sans-serif" font-size="24.43" font-weight="800" letter-spacing="2.527"><tspan x="70.2" dy="0">FOUR WAYS TO BUILD</tspan></text>
<rect x="0" y="1344" width="1080" height="576" fill="#D84A32"/>
<g transform="translate(70.2 1390.08) scale(5.76)"><g data-qr-url="https://build.ygf.example/offer?utm_source=social-story-1080x1920" data-qr-modules="37" data-qr-quiet-zone="4"><rect class="qr-background" x="0" y="0" width="45" height="45" fill="#FFFFFF"/><g fill="#16261F"><rect class="qr-module" x="4" y="4" width="1" height="1"/><rect class="qr-module" x="5" y="4" width="1" height="1"/><rect class="qr-module" x="6" y="4" width="1" height="1"/><rect class="qr-module" x="7" y="4" width="1" height="1"/><rect class="qr-module" x="8" y="4" width="1" height="1"/><rect class="qr-module" x="9" y="4" width="1" height="1"/><rect class="qr-module" x="10" y="4" width="1" height="1"/><rect class="qr-module" x="12" y="4" width="1" height="1"/><rect class="qr-module" x="16" y="4" width="1" height="1"/><rect class="qr-module" x="18" y="4" width="1" height="1"/><rect class="qr-module" x="19" y="4" width="1" height="1"/><rect class="qr-module" x="20" y="4" width="1" height="1"/><rect class="qr-module" x="22" y="4" width="1" height="1"/><rect class="qr-module" x="24" y="4" width="1" height="1"/><rect class="qr-module" x="25" y="4" width="1" height="1"/><rect class="qr-module" x="26" y="4" width="1" height="1"/><rect class="qr-module" x="28" y="4" width="1" height="1"/><rect class="qr-module" x="30" y="4" width="1" height="1"/><rect class="qr-module" x="34" y="4" width="1" height="1"/><rect class="qr-module" x="35" y="4" width="1" height="1"/><rect class="qr-module" x="36" y="4" width="1" height="1"/><rect class="qr-module" x="37" y="4" width="1" height="1"/><rect class="qr-module" x="38" y="4" width="1" height="1"/><rect class="qr-module" x="39" y="4" width="1" height="1"/><rect class="qr-module" x="40" y="4" width="1" height="1"/><rect class="qr-module" x="4" y="5" width="1" height="1"/><rect class="qr-module" x="10" y="5" width="1" height="1"/><rect class="qr-module" x="12" y="5" width="1" height="1"/><rect class="qr-module" x="13" y="5" width="1" height="1"/><rect class="qr-module" x="16" y="5" width="1" height="1"/><rect class="qr-module" x="21" y="5" width="1" height="1"/><rect class="qr-module" x="22" y="5" width="1" height="1"/><rect class="qr-module" x="23" y="5" width="1" height="1"/><rect class="qr-module" x="24" y="5" width="1" height="1"/><rect class="qr-module" x="26" y="5" width="1" height="1"/><rect class="qr-module" x="27" y="5" width="1" height="1"/><rect class="qr-module" x="28" y="5" width="1" height="1"/><rect class="qr-module" x="29" y="5" width="1" height="1"/><rect class="qr-module" x="34" y="5" width="1" height="1"/><rect class="qr-module" x="40" y="5" width="1" height="1"/><rect class="qr-module" x="4" y="6" width="1" height="1"/><rect class="qr-module" x="6" y="6" width="1" height="1"/><rect class="qr-module" x="7" y="6" width="1" height="1"/><rect class="qr-module" x="8" y="6" width="1" height="1"/><rect class="qr-module" x="10" y="6" width="1" height="1"/><rect class="qr-module" x="13" y="6" width="1" height="1"/><rect class="qr-module" x="16" y="6" width="1" height="1"/><rect class="qr-module" x="17" y="6" width="1" height="1"/><rect class="qr-module" x="19" y="6" width="1" height="1"/><rect class="qr-module" x="24" y="6" width="1" height="1"/><rect class="qr-module" x="29" y="6" width="1" height="1"/><rect class="qr-module" x="30" y="6" width="1" height="1"/><rect class="qr-module" x="32" y="6" width="1" height="1"/><rect class="qr-module" x="34" y="6" width="1" height="1"/><rect class="qr-module" x="36" y="6" width="1" height="1"/><rect class="qr-module" x="37" y="6" width="1" height="1"/><rect class="qr-module" x="38" y="6" width="1" height="1"/><rect class="qr-module" x="40" y="6" width="1" height="1"/><rect class="qr-module" x="4" y="7" width="1" height="1"/><rect class="qr-module" x="6" y="7" width="1" height="1"/><rect class="qr-module" x="7" y="7" width="1" height="1"/><rect class="qr-module" x="8" y="7" width="1" height="1"/><rect class="qr-module" x="10" y="7" width="1" height="1"/><rect class="qr-module" x="12" y="7" width="1" height="1"/><rect class="qr-module" x="13" y="7" width="1" height="1"/><rect class="qr-module" x="14" y="7" width="1" height="1"/><rect class="qr-module" x="15" y="7" width="1" height="1"/><rect class="qr-module" x="16" y="7" width="1" height="1"/><rect class="qr-module" x="17" y="7" width="1" height="1"/><rect class="qr-module" x="19" y="7" width="1" height="1"/><rect class="qr-module" x="20" y="7" width="1" height="1"/><rect class="qr-module" x="21" y="7" width="1" height="1"/><rect class="qr-module" x="23" y="7" width="1" height="1"/><rect class="qr-module" x="24" y="7" width="1" height="1"/><rect class="qr-module" x="28" y="7" width="1" height="1"/><rect class="qr-module" x="29" y="7" width="1" height="1"/><rect class="qr-module" x="30" y="7" width="1" height="1"/><rect class="qr-module" x="31" y="7" width="1" height="1"/><rect class="qr-module" x="34" y="7" width="1" height="1"/><rect class="qr-module" x="36" y="7" width="1" height="1"/><rect class="qr-module" x="37" y="7" width="1" height="1"/><rect class="qr-module" x="38" y="7" width="1" height="1"/><rect class="qr-module" x="40" y="7" width="1" height="1"/><rect class="qr-module" x="4" y="8" width="1" height="1"/><rect class="qr-module" x="6" y="8" width="1" height="1"/><rect class="qr-module" x="7" y="8" width="1" height="1"/><rect class="qr-module" x="8" y="8" width="1" height="1"/><rect class="qr-module" x="10" y="8" width="1" height="1"/><rect class="qr-module" x="13" y="8" width="1" height="1"/><rect class="qr-module" x="14" y="8" width="1" height="1"/><rect class="qr-module" x="15" y="8" width="1" height="1"/><rect class="qr-module" x="19" y="8" width="1" height="1"/><rect class="qr-module" x="21" y="8" width="1" height="1"/><rect class="qr-module" x="23" y="8" width="1" height="1"/><rect class="qr-module" x="25" y="8" width="1" height="1"/><rect class="qr-module" x="28" y="8" width="1" height="1"/><rect class="qr-module" x="29" y="8" width="1" height="1"/><rect class="qr-module" x="30" y="8" width="1" height="1"/><rect class="qr-module" x="31" y="8" width="1" height="1"/><rect class="qr-module" x="32" y="8" width="1" height="1"/><rect class="qr-module" x="34" y="8" width="1" height="1"/><rect class="qr-module" x="36" y="8" width="1" height="1"/><rect class="qr-module" x="37" y="8" width="1" height="1"/><rect class="qr-module" x="38" y="8" width="1" height="1"/><rect class="qr-module" x="40" y="8" width="1" height="1"/><rect class="qr-module" x="4" y="9" width="1" height="1"/><rect class="qr-module" x="10" y="9" width="1" height="1"/><rect class="qr-module" x="14" y="9" width="1" height="1"/><rect class="qr-module" x="15" y="9" width="1" height="1"/><rect class="qr-module" x="16" y="9" width="1" height="1"/><rect class="qr-module" x="18" y="9" width="1" height="1"/><rect class="qr-module" x="20" y="9" width="1" height="1"/><rect class="qr-module" x="23" y="9" width="1" height="1"/><rect class="qr-module" x="24" y="9" width="1" height="1"/><rect class="qr-module" x="25" y="9" width="1" height="1"/><rect class="qr-module" x="29" y="9" width="1" height="1"/><rect class="qr-module" x="34" y="9" width="1" height="1"/><rect class="qr-module" x="40" y="9" width="1" height="1"/><rect class="qr-module" x="4" y="10" width="1" height="1"/><rect class="qr-module" x="5" y="10" width="1" height="1"/><rect class="qr-module" x="6" y="10" width="1" height="1"/><rect class="qr-module" x="7" y="10" width="1" height="1"/><rect class="qr-module" x="8" y="10" width="1" height="1"/><rect class="qr-module" x="9" y="10" width="1" height="1"/><rect class="qr-module" x="10" y="10" width="1" height="1"/><rect class="qr-module" x="12" y="10" width="1" height="1"/><rect class="qr-module" x="14" y="10" width="1" height="1"/><rect class="qr-module" x="16" y="10" width="1" height="1"/><rect class="qr-module" x="18" y="10" width="1" height="1"/><rect class="qr-module" x="20" y="10" width="1" height="1"/><rect class="qr-module" x="22" y="10" width="1" height="1"/><rect class="qr-module" x="24" y="10" width="1" height="1"/><rect class="qr-module" x="26" y="10" width="1" height="1"/><rect class="qr-module" x="28" y="10" width="1" height="1"/><rect class="qr-module" x="30" y="10" width="1" height="1"/><rect class="qr-module" x="32" y="10" width="1" height="1"/><rect class="qr-module" x="34" y="10" width="1" height="1"/><rect class="qr-module" x="35" y="10" width="1" height="1"/><rect class="qr-module" x="36" y="10" width="1" height="1"/><rect class="qr-module" x="37" y="10" width="1" height="1"/><rect class="qr-module" x="38" y="10" width="1" height="1"/><rect class="qr-module" x="39" y="10" width="1" height="1"/><rect class="qr-module" x="40" y="10" width="1" height="1"/><rect class="qr-module" x="12" y="11" width="1" height="1"/><rect class="qr-module" x="13" y="11" width="1" height="1"/><rect class="qr-module" x="14" y="11" width="1" height="1"/><rect class="qr-module" x="15" y="11" width="1" height="1"/><rect class="qr-module" x="16" y="11" width="1" height="1"/><rect class="qr-module" x="17" y="11" width="1" height="1"/><rect class="qr-module" x="18" y="11" width="1" height="1"/><rect class="qr-module" x="21" y="11" width="1" height="1"/><rect class="qr-module" x="22" y="11" width="1" height="1"/><rect class="qr-module" x="25" y="11" width="1" height="1"/><rect class="qr-module" x="27" y="11" width="1" height="1"/><rect class="qr-module" x="28" y="11" width="1" height="1"/><rect class="qr-module" x="30" y="11" width="1" height="1"/><rect class="qr-module" x="4" y="12" width="1" height="1"/><rect class="qr-module" x="6" y="12" width="1" height="1"/><rect class="qr-module" x="7" y="12" width="1" height="1"/><rect class="qr-module" x="9" y="12" width="1" height="1"/><rect class="qr-module" x="10" y="12" width="1" height="1"/><rect class="qr-module" x="11" y="12" width="1" height="1"/><rect class="qr-module" x="13" y="12" width="1" height="1"/><rect class="qr-module" x="14" y="12" width="1" height="1"/><rect class="qr-module" x="15" y="12" width="1" height="1"/><rect class="qr-module" x="16" y="12" width="1" height="1"/><rect class="qr-module" x="19" y="12" width="1" height="1"/><rect class="qr-module" x="20" y="12" width="1" height="1"/><rect class="qr-module" x="23" y="12" width="1" height="1"/><rect class="qr-module" x="24" y="12" width="1" height="1"/><rect class="qr-module" x="27" y="12" width="1" height="1"/><rect class="qr-module" x="31" y="12" width="1" height="1"/><rect class="qr-module" x="34" y="12" width="1" height="1"/><rect class="qr-module" x="37" y="12" width="1" height="1"/><rect class="qr-module" x="39" y="12" width="1" height="1"/><rect class="qr-module" x="40" y="12" width="1" height="1"/><rect class="qr-module" x="4" y="13" width="1" height="1"/><rect class="qr-module" x="8" y="13" width="1" height="1"/><rect class="qr-module" x="11" y="13" width="1" height="1"/><rect class="qr-module" x="14" y="13" width="1" height="1"/><rect class="qr-module" x="16" y="13" width="1" height="1"/><rect class="qr-module" x="19" y="13" width="1" height="1"/><rect class="qr-module" x="20" y="13" width="1" height="1"/><rect class="qr-module" x="21" y="13" width="1" height="1"/><rect class="qr-module" x="30" y="13" width="1" height="1"/><rect class="qr-module" x="33" y="13" width="1" height="1"/><rect class="qr-module" x="35" y="13" width="1" height="1"/><rect class="qr-module" x="38" y="13" width="1" height="1"/><rect class="qr-module" x="39" y="13" width="1" height="1"/><rect class="qr-module" x="6" y="14" width="1" height="1"/><rect class="qr-module" x="8" y="14" width="1" height="1"/><rect class="qr-module" x="10" y="14" width="1" height="1"/><rect class="qr-module" x="12" y="14" width="1" height="1"/><rect class="qr-module" x="13" y="14" width="1" height="1"/><rect class="qr-module" x="14" y="14" width="1" height="1"/><rect class="qr-module" x="15" y="14" width="1" height="1"/><rect class="qr-module" x="19" y="14" width="1" height="1"/><rect class="qr-module" x="21" y="14" width="1" height="1"/><rect class="qr-module" x="22" y="14" width="1" height="1"/><rect class="qr-module" x="25" y="14" width="1" height="1"/><rect class="qr-module" x="26" y="14" width="1" height="1"/><rect class="qr-module" x="29" y="14" width="1" height="1"/><rect class="qr-module" x="32" y="14" width="1" height="1"/><rect class="qr-module" x="33" y="14" width="1" height="1"/><rect class="qr-module" x="35" y="14" width="1" height="1"/><rect class="qr-module" x="37" y="14" width="1" height="1"/><rect class="qr-module" x="38" y="14" width="1" height="1"/><rect class="qr-module" x="4" y="15" width="1" height="1"/><rect class="qr-module" x="5" y="15" width="1" height="1"/><rect class="qr-module" x="9" y="15" width="1" height="1"/><rect class="qr-module" x="11" y="15" width="1" height="1"/><rect class="qr-module" x="13" y="15" width="1" height="1"/><rect class="qr-module" x="18" y="15" width="1" height="1"/><rect class="qr-module" x="19" y="15" width="1" height="1"/><rect class="qr-module" x="22" y="15" width="1" height="1"/><rect class="qr-module" x="23" y="15" width="1" height="1"/><rect class="qr-module" x="27" y="15" width="1" height="1"/><rect class="qr-module" x="28" y="15" width="1" height="1"/><rect class="qr-module" x="29" y="15" width="1" height="1"/><rect class="qr-module" x="32" y="15" width="1" height="1"/><rect class="qr-module" x="34" y="15" width="1" height="1"/><rect class="qr-module" x="35" y="15" width="1" height="1"/><rect class="qr-module" x="37" y="15" width="1" height="1"/><rect class="qr-module" x="38" y="15" width="1" height="1"/><rect class="qr-module" x="4" y="16" width="1" height="1"/><rect class="qr-module" x="7" y="16" width="1" height="1"/><rect class="qr-module" x="10" y="16" width="1" height="1"/><rect class="qr-module" x="12" y="16" width="1" height="1"/><rect class="qr-module" x="13" y="16" width="1" height="1"/><rect class="qr-module" x="14" y="16" width="1" height="1"/><rect class="qr-module" x="17" y="16" width="1" height="1"/><rect class="qr-module" x="24" y="16" width="1" height="1"/><rect class="qr-module" x="26" y="16" width="1" height="1"/><rect class="qr-module" x="27" y="16" width="1" height="1"/><rect class="qr-module" x="28" y="16" width="1" height="1"/><rect class="qr-module" x="29" y="16" width="1" height="1"/><rect class="qr-module" x="31" y="16" width="1" height="1"/><rect class="qr-module" x="32" y="16" width="1" height="1"/><rect class="qr-module" x="33" y="16" width="1" height="1"/><rect class="qr-module" x="34" y="16" width="1" height="1"/><rect class="qr-module" x="36" y="16" width="1" height="1"/><rect class="qr-module" x="37" y="16" width="1" height="1"/><rect class="qr-module" x="38" y="16" width="1" height="1"/><rect class="qr-module" x="39" y="16" width="1" height="1"/><rect class="qr-module" x="40" y="16" width="1" height="1"/><rect class="qr-module" x="5" y="17" width="1" height="1"/><rect class="qr-module" x="8" y="17" width="1" height="1"/><rect class="qr-module" x="9" y="17" width="1" height="1"/><rect class="qr-module" x="11" y="17" width="1" height="1"/><rect class="qr-module" x="12" y="17" width="1" height="1"/><rect class="qr-module" x="13" y="17" width="1" height="1"/><rect class="qr-module" x="15" y="17" width="1" height="1"/><rect class="qr-module" x="16" y="17" width="1" height="1"/><rect class="qr-module" x="18" y="17" width="1" height="1"/><rect class="qr-module" x="19" y="17" width="1" height="1"/><rect class="qr-module" x="20" y="17" width="1" height="1"/><rect class="qr-module" x="22" y="17" width="1" height="1"/><rect class="qr-module" x="23" y="17" width="1" height="1"/><rect class="qr-module" x="28" y="17" width="1" height="1"/><rect class="qr-module" x="30" y="17" width="1" height="1"/><rect class="qr-module" x="31" y="17" width="1" height="1"/><rect class="qr-module" x="32" y="17" width="1" height="1"/><rect class="qr-module" x="34" y="17" width="1" height="1"/><rect class="qr-module" x="35" y="17" width="1" height="1"/><rect class="qr-module" x="36" y="17" width="1" height="1"/><rect class="qr-module" x="37" y="17" width="1" height="1"/><rect class="qr-module" x="39" y="17" width="1" height="1"/><rect class="qr-module" x="40" y="17" width="1" height="1"/><rect class="qr-module" x="6" y="18" width="1" height="1"/><rect class="qr-module" x="9" y="18" width="1" height="1"/><rect class="qr-module" x="10" y="18" width="1" height="1"/><rect class="qr-module" x="12" y="18" width="1" height="1"/><rect class="qr-module" x="14" y="18" width="1" height="1"/><rect class="qr-module" x="16" y="18" width="1" height="1"/><rect class="qr-module" x="21" y="18" width="1" height="1"/><rect class="qr-module" x="22" y="18" width="1" height="1"/><rect class="qr-module" x="23" y="18" width="1" height="1"/><rect class="qr-module" x="24" y="18" width="1" height="1"/><rect class="qr-module" x="26" y="18" width="1" height="1"/><rect class="qr-module" x="29" y="18" width="1" height="1"/><rect class="qr-module" x="32" y="18" width="1" height="1"/><rect class="qr-module" x="33" y="18" width="1" height="1"/><rect class="qr-module" x="36" y="18" width="1" height="1"/><rect class="qr-module" x="38" y="18" width="1" height="1"/><rect class="qr-module" x="39" y="18" width="1" height="1"/><rect class="qr-module" x="5" y="19" width="1" height="1"/><rect class="qr-module" x="6" y="19" width="1" height="1"/><rect class="qr-module" x="9" y="19" width="1" height="1"/><rect class="qr-module" x="15" y="19" width="1" height="1"/><rect class="qr-module" x="16" y="19" width="1" height="1"/><rect class="qr-module" x="17" y="19" width="1" height="1"/><rect class="qr-module" x="18" y="19" width="1" height="1"/><rect class="qr-module" x="21" y="19" width="1" height="1"/><rect class="qr-module" x="22" y="19" width="1" height="1"/><rect class="qr-module" x="23" y="19" width="1" height="1"/><rect class="qr-module" x="24" y="19" width="1" height="1"/><rect class="qr-module" x="25" y="19" width="1" height="1"/><rect class="qr-module" x="26" y="19" width="1" height="1"/><rect class="qr-module" x="28" y="19" width="1" height="1"/><rect class="qr-module" x="32" y="19" width="1" height="1"/><rect class="qr-module" x="34" y="19" width="1" height="1"/><rect class="qr-module" x="35" y="19" width="1" height="1"/><rect class="qr-module" x="36" y="19" width="1" height="1"/><rect class="qr-module" x="39" y="19" width="1" height="1"/><rect class="qr-module" x="6" y="20" width="1" height="1"/><rect class="qr-module" x="7" y="20" width="1" height="1"/><rect class="qr-module" x="8" y="20" width="1" height="1"/><rect class="qr-module" x="9" y="20" width="1" height="1"/><rect class="qr-module" x="10" y="20" width="1" height="1"/><rect class="qr-module" x="12" y="20" width="1" height="1"/><rect class="qr-module" x="13" y="20" width="1" height="1"/><rect class="qr-module" x="17" y="20" width="1" height="1"/><rect class="qr-module" x="18" y="20" width="1" height="1"/><rect class="qr-module" x="20" y="20" width="1" height="1"/><rect class="qr-module" x="21" y="20" width="1" height="1"/><rect class="qr-module" x="22" y="20" width="1" height="1"/><rect class="qr-module" x="23" y="20" width="1" height="1"/><rect class="qr-module" x="24" y="20" width="1" height="1"/><rect class="qr-module" x="27" y="20" width="1" height="1"/><rect class="qr-module" x="29" y="20" width="1" height="1"/><rect class="qr-module" x="31" y="20" width="1" height="1"/><rect class="qr-module" x="32" y="20" width="1" height="1"/><rect class="qr-module" x="35" y="20" width="1" height="1"/><rect class="qr-module" x="37" y="20" width="1" height="1"/><rect class="qr-module" x="38" y="20" width="1" height="1"/><rect class="qr-module" x="39" y="20" width="1" height="1"/><rect class="qr-module" x="6" y="21" width="1" height="1"/><rect class="qr-module" x="7" y="21" width="1" height="1"/><rect class="qr-module" x="8" y="21" width="1" height="1"/><rect class="qr-module" x="9" y="21" width="1" height="1"/><rect class="qr-module" x="12" y="21" width="1" height="1"/><rect class="qr-module" x="13" y="21" width="1" height="1"/><rect class="qr-module" x="16" y="21" width="1" height="1"/><rect class="qr-module" x="20" y="21" width="1" height="1"/><rect class="qr-module" x="21" y="21" width="1" height="1"/><rect class="qr-module" x="23" y="21" width="1" height="1"/><rect class="qr-module" x="24" y="21" width="1" height="1"/><rect class="qr-module" x="25" y="21" width="1" height="1"/><rect class="qr-module" x="30" y="21" width="1" height="1"/><rect class="qr-module" x="31" y="21" width="1" height="1"/><rect class="qr-module" x="32" y="21" width="1" height="1"/><rect class="qr-module" x="34" y="21" width="1" height="1"/><rect class="qr-module" x="38" y="21" width="1" height="1"/><rect class="qr-module" x="39" y="21" width="1" height="1"/><rect class="qr-module" x="40" y="21" width="1" height="1"/><rect class="qr-module" x="7" y="22" width="1" height="1"/><rect class="qr-module" x="8" y="22" width="1" height="1"/><rect class="qr-module" x="9" y="22" width="1" height="1"/><rect class="qr-module" x="10" y="22" width="1" height="1"/><rect class="qr-module" x="11" y="22" width="1" height="1"/><rect class="qr-module" x="13" y="22" width="1" height="1"/><rect class="qr-module" x="16" y="22" width="1" height="1"/><rect class="qr-module" x="17" y="22" width="1" height="1"/><rect class="qr-module" x="19" y="22" width="1" height="1"/><rect class="qr-module" x="20" y="22" width="1" height="1"/><rect class="qr-module" x="21" y="22" width="1" height="1"/><rect class="qr-module" x="23" y="22" width="1" height="1"/><rect class="qr-module" x="26" y="22" width="1" height="1"/><rect class="qr-module" x="28" y="22" width="1" height="1"/><rect class="qr-module" x="29" y="22" width="1" height="1"/><rect class="qr-module" x="30" y="22" width="1" height="1"/><rect class="qr-module" x="31" y="22" width="1" height="1"/><rect class="qr-module" x="32" y="22" width="1" height="1"/><rect class="qr-module" x="33" y="22" width="1" height="1"/><rect class="qr-module" x="34" y="22" width="1" height="1"/><rect class="qr-module" x="35" y="22" width="1" height="1"/><rect class="qr-module" x="38" y="22" width="1" height="1"/><rect class="qr-module" x="39" y="22" width="1" height="1"/><rect class="qr-module" x="40" y="22" width="1" height="1"/><rect class="qr-module" x="6" y="23" width="1" height="1"/><rect class="qr-module" x="9" y="23" width="1" height="1"/><rect class="qr-module" x="12" y="23" width="1" height="1"/><rect class="qr-module" x="18" y="23" width="1" height="1"/><rect class="qr-module" x="21" y="23" width="1" height="1"/><rect class="qr-module" x="22" y="23" width="1" height="1"/><rect class="qr-module" x="23" y="23" width="1" height="1"/><rect class="qr-module" x="26" y="23" width="1" height="1"/><rect class="qr-module" x="27" y="23" width="1" height="1"/><rect class="qr-module" x="30" y="23" width="1" height="1"/><rect class="qr-module" x="32" y="23" width="1" height="1"/><rect class="qr-module" x="35" y="23" width="1" height="1"/><rect class="qr-module" x="37" y="23" width="1" height="1"/><rect class="qr-module" x="39" y="23" width="1" height="1"/><rect class="qr-module" x="6" y="24" width="1" height="1"/><rect class="qr-module" x="7" y="24" width="1" height="1"/><rect class="qr-module" x="9" y="24" width="1" height="1"/><rect class="qr-module" x="10" y="24" width="1" height="1"/><rect class="qr-module" x="12" y="24" width="1" height="1"/><rect class="qr-module" x="14" y="24" width="1" height="1"/><rect class="qr-module" x="17" y="24" width="1" height="1"/><rect class="qr-module" x="18" y="24" width="1" height="1"/><rect class="qr-module" x="20" y="24" width="1" height="1"/><rect class="qr-module" x="21" y="24" width="1" height="1"/><rect class="qr-module" x="22" y="24" width="1" height="1"/><rect class="qr-module" x="24" y="24" width="1" height="1"/><rect class="qr-module" x="25" y="24" width="1" height="1"/><rect class="qr-module" x="28" y="24" width="1" height="1"/><rect class="qr-module" x="30" y="24" width="1" height="1"/><rect class="qr-module" x="31" y="24" width="1" height="1"/><rect class="qr-module" x="32" y="24" width="1" height="1"/><rect class="qr-module" x="33" y="24" width="1" height="1"/><rect class="qr-module" x="35" y="24" width="1" height="1"/><rect class="qr-module" x="36" y="24" width="1" height="1"/><rect class="qr-module" x="40" y="24" width="1" height="1"/><rect class="qr-module" x="4" y="25" width="1" height="1"/><rect class="qr-module" x="5" y="25" width="1" height="1"/><rect class="qr-module" x="7" y="25" width="1" height="1"/><rect class="qr-module" x="8" y="25" width="1" height="1"/><rect class="qr-module" x="12" y="25" width="1" height="1"/><rect class="qr-module" x="13" y="25" width="1" height="1"/><rect class="qr-module" x="16" y="25" width="1" height="1"/><rect class="qr-module" x="17" y="25" width="1" height="1"/><rect class="qr-module" x="18" y="25" width="1" height="1"/><rect class="qr-module" x="20" y="25" width="1" height="1"/><rect class="qr-module" x="23" y="25" width="1" height="1"/><rect class="qr-module" x="27" y="25" width="1" height="1"/><rect class="qr-module" x="29" y="25" width="1" height="1"/><rect class="qr-module" x="37" y="25" width="1" height="1"/><rect class="qr-module" x="39" y="25" width="1" height="1"/><rect class="qr-module" x="5" y="26" width="1" height="1"/><rect class="qr-module" x="10" y="26" width="1" height="1"/><rect class="qr-module" x="11" y="26" width="1" height="1"/><rect class="qr-module" x="12" y="26" width="1" height="1"/><rect class="qr-module" x="13" y="26" width="1" height="1"/><rect class="qr-module" x="21" y="26" width="1" height="1"/><rect class="qr-module" x="24" y="26" width="1" height="1"/><rect class="qr-module" x="25" y="26" width="1" height="1"/><rect class="qr-module" x="26" y="26" width="1" height="1"/><rect class="qr-module" x="27" y="26" width="1" height="1"/><rect class="qr-module" x="28" y="26" width="1" height="1"/><rect class="qr-module" x="30" y="26" width="1" height="1"/><rect class="qr-module" x="34" y="26" width="1" height="1"/><rect class="qr-module" x="35" y="26" width="1" height="1"/><rect class="qr-module" x="5" y="27" width="1" height="1"/><rect class="qr-module" x="7" y="27" width="1" height="1"/><rect class="qr-module" x="9" y="27" width="1" height="1"/><rect class="qr-module" x="11" y="27" width="1" height="1"/><rect class="qr-module" x="12" y="27" width="1" height="1"/><rect class="qr-module" x="13" y="27" width="1" height="1"/><rect class="qr-module" x="15" y="27" width="1" height="1"/><rect class="qr-module" x="16" y="27" width="1" height="1"/><rect class="qr-module" x="18" y="27" width="1" height="1"/><rect class="qr-module" x="19" y="27" width="1" height="1"/><rect class="qr-module" x="20" y="27" width="1" height="1"/><rect class="qr-module" x="22" y="27" width="1" height="1"/><rect class="qr-module" x="25" y="27" width="1" height="1"/><rect class="qr-module" x="26" y="27" width="1" height="1"/><rect class="qr-module" x="28" y="27" width="1" height="1"/><rect class="qr-module" x="29" y="27" width="1" height="1"/><rect class="qr-module" x="33" y="27" width="1" height="1"/><rect class="qr-module" x="34" y="27" width="1" height="1"/><rect class="qr-module" x="36" y="27" width="1" height="1"/><rect class="qr-module" x="37" y="27" width="1" height="1"/><rect class="qr-module" x="38" y="27" width="1" height="1"/><rect class="qr-module" x="39" y="27" width="1" height="1"/><rect class="qr-module" x="5" y="28" width="1" height="1"/><rect class="qr-module" x="9" y="28" width="1" height="1"/><rect class="qr-module" x="10" y="28" width="1" height="1"/><rect class="qr-module" x="12" y="28" width="1" height="1"/><rect class="qr-module" x="14" y="28" width="1" height="1"/><rect class="qr-module" x="15" y="28" width="1" height="1"/><rect class="qr-module" x="19" y="28" width="1" height="1"/><rect class="qr-module" x="22" y="28" width="1" height="1"/><rect class="qr-module" x="24" y="28" width="1" height="1"/><rect class="qr-module" x="25" y="28" width="1" height="1"/><rect class="qr-module" x="26" y="28" width="1" height="1"/><rect class="qr-module" x="27" y="28" width="1" height="1"/><rect class="qr-module" x="28" y="28" width="1" height="1"/><rect class="qr-module" x="31" y="28" width="1" height="1"/><rect class="qr-module" x="33" y="28" width="1" height="1"/><rect class="qr-module" x="34" y="28" width="1" height="1"/><rect class="qr-module" x="36" y="28" width="1" height="1"/><rect class="qr-module" x="38" y="28" width="1" height="1"/><rect class="qr-module" x="39" y="28" width="1" height="1"/><rect class="qr-module" x="12" y="29" width="1" height="1"/><rect class="qr-module" x="15" y="29" width="1" height="1"/><rect class="qr-module" x="18" y="29" width="1" height="1"/><rect class="qr-module" x="20" y="29" width="1" height="1"/><rect class="qr-module" x="21" y="29" width="1" height="1"/><rect class="qr-module" x="22" y="29" width="1" height="1"/><rect class="qr-module" x="24" y="29" width="1" height="1"/><rect class="qr-module" x="27" y="29" width="1" height="1"/><rect class="qr-module" x="31" y="29" width="1" height="1"/><rect class="qr-module" x="34" y="29" width="1" height="1"/><rect class="qr-module" x="36" y="29" width="1" height="1"/><rect class="qr-module" x="38" y="29" width="1" height="1"/><rect class="qr-module" x="39" y="29" width="1" height="1"/><rect class="qr-module" x="40" y="29" width="1" height="1"/><rect class="qr-module" x="5" y="30" width="1" height="1"/><rect class="qr-module" x="6" y="30" width="1" height="1"/><rect class="qr-module" x="7" y="30" width="1" height="1"/><rect class="qr-module" x="8" y="30" width="1" height="1"/><rect class="qr-module" x="10" y="30" width="1" height="1"/><rect class="qr-module" x="15" y="30" width="1" height="1"/><rect class="qr-module" x="16" y="30" width="1" height="1"/><rect class="qr-module" x="18" y="30" width="1" height="1"/><rect class="qr-module" x="19" y="30" width="1" height="1"/><rect class="qr-module" x="20" y="30" width="1" height="1"/><rect class="qr-module" x="21" y="30" width="1" height="1"/><rect class="qr-module" x="23" y="30" width="1" height="1"/><rect class="qr-module" x="24" y="30" width="1" height="1"/><rect class="qr-module" x="25" y="30" width="1" height="1"/><rect class="qr-module" x="29" y="30" width="1" height="1"/><rect class="qr-module" x="30" y="30" width="1" height="1"/><rect class="qr-module" x="34" y="30" width="1" height="1"/><rect class="qr-module" x="35" y="30" width="1" height="1"/><rect class="qr-module" x="37" y="30" width="1" height="1"/><rect class="qr-module" x="38" y="30" width="1" height="1"/><rect class="qr-module" x="39" y="30" width="1" height="1"/><rect class="qr-module" x="4" y="31" width="1" height="1"/><rect class="qr-module" x="7" y="31" width="1" height="1"/><rect class="qr-module" x="8" y="31" width="1" height="1"/><rect class="qr-module" x="9" y="31" width="1" height="1"/><rect class="qr-module" x="12" y="31" width="1" height="1"/><rect class="qr-module" x="13" y="31" width="1" height="1"/><rect class="qr-module" x="16" y="31" width="1" height="1"/><rect class="qr-module" x="17" y="31" width="1" height="1"/><rect class="qr-module" x="18" y="31" width="1" height="1"/><rect class="qr-module" x="20" y="31" width="1" height="1"/><rect class="qr-module" x="25" y="31" width="1" height="1"/><rect class="qr-module" x="28" y="31" width="1" height="1"/><rect class="qr-module" x="30" y="31" width="1" height="1"/><rect class="qr-module" x="31" y="31" width="1" height="1"/><rect class="qr-module" x="33" y="31" width="1" height="1"/><rect class="qr-module" x="34" y="31" width="1" height="1"/><rect class="qr-module" x="35" y="31" width="1" height="1"/><rect class="qr-module" x="36" y="31" width="1" height="1"/><rect class="qr-module" x="39" y="31" width="1" height="1"/><rect class="qr-module" x="40" y="31" width="1" height="1"/><rect class="qr-module" x="10" y="32" width="1" height="1"/><rect class="qr-module" x="13" y="32" width="1" height="1"/><rect class="qr-module" x="15" y="32" width="1" height="1"/><rect class="qr-module" x="17" y="32" width="1" height="1"/><rect class="qr-module" x="18" y="32" width="1" height="1"/><rect class="qr-module" x="19" y="32" width="1" height="1"/><rect class="qr-module" x="20" y="32" width="1" height="1"/><rect class="qr-module" x="22" y="32" width="1" height="1"/><rect class="qr-module" x="25" y="32" width="1" height="1"/><rect class="qr-module" x="26" y="32" width="1" height="1"/><rect class="qr-module" x="27" y="32" width="1" height="1"/><rect class="qr-module" x="29" y="32" width="1" height="1"/><rect class="qr-module" x="31" y="32" width="1" height="1"/><rect class="qr-module" x="32" y="32" width="1" height="1"/><rect class="qr-module" x="33" y="32" width="1" height="1"/><rect class="qr-module" x="34" y="32" width="1" height="1"/><rect class="qr-module" x="35" y="32" width="1" height="1"/><rect class="qr-module" x="36" y="32" width="1" height="1"/><rect class="qr-module" x="38" y="32" width="1" height="1"/><rect class="qr-module" x="40" y="32" width="1" height="1"/><rect class="qr-module" x="12" y="33" width="1" height="1"/><rect class="qr-module" x="15" y="33" width="1" height="1"/><rect class="qr-module" x="16" y="33" width="1" height="1"/><rect class="qr-module" x="19" y="33" width="1" height="1"/><rect class="qr-module" x="21" y="33" width="1" height="1"/><rect class="qr-module" x="24" y="33" width="1" height="1"/><rect class="qr-module" x="26" y="33" width="1" height="1"/><rect class="qr-module" x="27" y="33" width="1" height="1"/><rect class="qr-module" x="28" y="33" width="1" height="1"/><rect class="qr-module" x="29" y="33" width="1" height="1"/><rect class="qr-module" x="30" y="33" width="1" height="1"/><rect class="qr-module" x="32" y="33" width="1" height="1"/><rect class="qr-module" x="36" y="33" width="1" height="1"/><rect class="qr-module" x="38" y="33" width="1" height="1"/><rect class="qr-module" x="39" y="33" width="1" height="1"/><rect class="qr-module" x="40" y="33" width="1" height="1"/><rect class="qr-module" x="4" y="34" width="1" height="1"/><rect class="qr-module" x="5" y="34" width="1" height="1"/><rect class="qr-module" x="6" y="34" width="1" height="1"/><rect class="qr-module" x="7" y="34" width="1" height="1"/><rect class="qr-module" x="8" y="34" width="1" height="1"/><rect class="qr-module" x="9" y="34" width="1" height="1"/><rect class="qr-module" x="10" y="34" width="1" height="1"/><rect class="qr-module" x="12" y="34" width="1" height="1"/><rect class="qr-module" x="13" y="34" width="1" height="1"/><rect class="qr-module" x="14" y="34" width="1" height="1"/><rect class="qr-module" x="17" y="34" width="1" height="1"/><rect class="qr-module" x="18" y="34" width="1" height="1"/><rect class="qr-module" x="19" y="34" width="1" height="1"/><rect class="qr-module" x="20" y="34" width="1" height="1"/><rect class="qr-module" x="21" y="34" width="1" height="1"/><rect class="qr-module" x="24" y="34" width="1" height="1"/><rect class="qr-module" x="25" y="34" width="1" height="1"/><rect class="qr-module" x="32" y="34" width="1" height="1"/><rect class="qr-module" x="34" y="34" width="1" height="1"/><rect class="qr-module" x="36" y="34" width="1" height="1"/><rect class="qr-module" x="38" y="34" width="1" height="1"/><rect class="qr-module" x="40" y="34" width="1" height="1"/><rect class="qr-module" x="4" y="35" width="1" height="1"/><rect class="qr-module" x="10" y="35" width="1" height="1"/><rect class="qr-module" x="12" y="35" width="1" height="1"/><rect class="qr-module" x="15" y="35" width="1" height="1"/><rect class="qr-module" x="17" y="35" width="1" height="1"/><rect class="qr-module" x="20" y="35" width="1" height="1"/><rect class="qr-module" x="26" y="35" width="1" height="1"/><rect class="qr-module" x="27" y="35" width="1" height="1"/><rect class="qr-module" x="30" y="35" width="1" height="1"/><rect class="qr-module" x="31" y="35" width="1" height="1"/><rect class="qr-module" x="32" y="35" width="1" height="1"/><rect class="qr-module" x="36" y="35" width="1" height="1"/><rect class="qr-module" x="4" y="36" width="1" height="1"/><rect class="qr-module" x="6" y="36" width="1" height="1"/><rect class="qr-module" x="7" y="36" width="1" height="1"/><rect class="qr-module" x="8" y="36" width="1" height="1"/><rect class="qr-module" x="10" y="36" width="1" height="1"/><rect class="qr-module" x="17" y="36" width="1" height="1"/><rect class="qr-module" x="22" y="36" width="1" height="1"/><rect class="qr-module" x="23" y="36" width="1" height="1"/><rect class="qr-module" x="26" y="36" width="1" height="1"/><rect class="qr-module" x="29" y="36" width="1" height="1"/><rect class="qr-module" x="32" y="36" width="1" height="1"/><rect class="qr-module" x="33" y="36" width="1" height="1"/><rect class="qr-module" x="34" y="36" width="1" height="1"/><rect class="qr-module" x="35" y="36" width="1" height="1"/><rect class="qr-module" x="36" y="36" width="1" height="1"/><rect class="qr-module" x="37" y="36" width="1" height="1"/><rect class="qr-module" x="39" y="36" width="1" height="1"/><rect class="qr-module" x="4" y="37" width="1" height="1"/><rect class="qr-module" x="6" y="37" width="1" height="1"/><rect class="qr-module" x="7" y="37" width="1" height="1"/><rect class="qr-module" x="8" y="37" width="1" height="1"/><rect class="qr-module" x="10" y="37" width="1" height="1"/><rect class="qr-module" x="12" y="37" width="1" height="1"/><rect class="qr-module" x="16" y="37" width="1" height="1"/><rect class="qr-module" x="17" y="37" width="1" height="1"/><rect class="qr-module" x="18" y="37" width="1" height="1"/><rect class="qr-module" x="19" y="37" width="1" height="1"/><rect class="qr-module" x="21" y="37" width="1" height="1"/><rect class="qr-module" x="22" y="37" width="1" height="1"/><rect class="qr-module" x="24" y="37" width="1" height="1"/><rect class="qr-module" x="25" y="37" width="1" height="1"/><rect class="qr-module" x="26" y="37" width="1" height="1"/><rect class="qr-module" x="29" y="37" width="1" height="1"/><rect class="qr-module" x="30" y="37" width="1" height="1"/><rect class="qr-module" x="31" y="37" width="1" height="1"/><rect class="qr-module" x="33" y="37" width="1" height="1"/><rect class="qr-module" x="34" y="37" width="1" height="1"/><rect class="qr-module" x="36" y="37" width="1" height="1"/><rect class="qr-module" x="37" y="37" width="1" height="1"/><rect class="qr-module" x="39" y="37" width="1" height="1"/><rect class="qr-module" x="4" y="38" width="1" height="1"/><rect class="qr-module" x="6" y="38" width="1" height="1"/><rect class="qr-module" x="7" y="38" width="1" height="1"/><rect class="qr-module" x="8" y="38" width="1" height="1"/><rect class="qr-module" x="10" y="38" width="1" height="1"/><rect class="qr-module" x="12" y="38" width="1" height="1"/><rect class="qr-module" x="13" y="38" width="1" height="1"/><rect class="qr-module" x="14" y="38" width="1" height="1"/><rect class="qr-module" x="16" y="38" width="1" height="1"/><rect class="qr-module" x="17" y="38" width="1" height="1"/><rect class="qr-module" x="18" y="38" width="1" height="1"/><rect class="qr-module" x="20" y="38" width="1" height="1"/><rect class="qr-module" x="22" y="38" width="1" height="1"/><rect class="qr-module" x="23" y="38" width="1" height="1"/><rect class="qr-module" x="24" y="38" width="1" height="1"/><rect class="qr-module" x="25" y="38" width="1" height="1"/><rect class="qr-module" x="26" y="38" width="1" height="1"/><rect class="qr-module" x="30" y="38" width="1" height="1"/><rect class="qr-module" x="31" y="38" width="1" height="1"/><rect class="qr-module" x="32" y="38" width="1" height="1"/><rect class="qr-module" x="33" y="38" width="1" height="1"/><rect class="qr-module" x="34" y="38" width="1" height="1"/><rect class="qr-module" x="36" y="38" width="1" height="1"/><rect class="qr-module" x="37" y="38" width="1" height="1"/><rect class="qr-module" x="39" y="38" width="1" height="1"/><rect class="qr-module" x="4" y="39" width="1" height="1"/><rect class="qr-module" x="10" y="39" width="1" height="1"/><rect class="qr-module" x="13" y="39" width="1" height="1"/><rect class="qr-module" x="15" y="39" width="1" height="1"/><rect class="qr-module" x="16" y="39" width="1" height="1"/><rect class="qr-module" x="17" y="39" width="1" height="1"/><rect class="qr-module" x="20" y="39" width="1" height="1"/><rect class="qr-module" x="22" y="39" width="1" height="1"/><rect class="qr-module" x="24" y="39" width="1" height="1"/><rect class="qr-module" x="26" y="39" width="1" height="1"/><rect class="qr-module" x="29" y="39" width="1" height="1"/><rect class="qr-module" x="31" y="39" width="1" height="1"/><rect class="qr-module" x="35" y="39" width="1" height="1"/><rect class="qr-module" x="36" y="39" width="1" height="1"/><rect class="qr-module" x="37" y="39" width="1" height="1"/><rect class="qr-module" x="38" y="39" width="1" height="1"/><rect class="qr-module" x="4" y="40" width="1" height="1"/><rect class="qr-module" x="5" y="40" width="1" height="1"/><rect class="qr-module" x="6" y="40" width="1" height="1"/><rect class="qr-module" x="7" y="40" width="1" height="1"/><rect class="qr-module" x="8" y="40" width="1" height="1"/><rect class="qr-module" x="9" y="40" width="1" height="1"/><rect class="qr-module" x="10" y="40" width="1" height="1"/><rect class="qr-module" x="12" y="40" width="1" height="1"/><rect class="qr-module" x="13" y="40" width="1" height="1"/><rect class="qr-module" x="16" y="40" width="1" height="1"/><rect class="qr-module" x="17" y="40" width="1" height="1"/><rect class="qr-module" x="19" y="40" width="1" height="1"/><rect class="qr-module" x="20" y="40" width="1" height="1"/><rect class="qr-module" x="21" y="40" width="1" height="1"/><rect class="qr-module" x="23" y="40" width="1" height="1"/><rect class="qr-module" x="26" y="40" width="1" height="1"/><rect class="qr-module" x="28" y="40" width="1" height="1"/><rect class="qr-module" x="29" y="40" width="1" height="1"/><rect class="qr-module" x="30" y="40" width="1" height="1"/><rect class="qr-module" x="36" y="40" width="1" height="1"/><rect class="qr-module" x="37" y="40" width="1" height="1"/><rect class="qr-module" x="38" y="40" width="1" height="1"/><rect class="qr-module" x="39" y="40" width="1" height="1"/><rect class="qr-module" x="40" y="40" width="1" height="1"/></g></g></g>
<text x="378" y="1464.96" fill="#FFFFFF" font-family="Inter, Avenir Next, Helvetica, Arial, sans-serif" font-size="56.16" font-weight="800"><tspan x="378" dy="0">Scan to claim</tspan></text>
<text x="378" y="1545.6" fill="#FFFFFF" font-family="Inter, Avenir Next, Helvetica, Arial, sans-serif" font-size="25.92" font-weight="600"><tspan x="378" dy="0">Get your code at checkout.</tspan></text>
<text x="378" y="1607.04" fill="#F6F0E4" font-family="Inter, Avenir Next, Helvetica, Arial, sans-serif" font-size="15.12" font-weight="700" letter-spacing="1.08"><tspan x="378" dy="0">For the USC community. Not affiliated with or endorsed by USC.</tspan></text>
<g data-use-case="Study"><rect x="70.2" y="950.4" width="220.32" height="322.56" rx="26.438" fill="#FFFFFF"/><rect x="87.826" y="1089.912" width="25.777" height="40.098" rx="3.437" fill="none" stroke="#D84A32" stroke-width="3.151" stroke-linecap="round" stroke-linejoin="round"/><rect x="113.603" y="1089.912" width="25.777" height="40.098" rx="3.437" fill="none" stroke="#D84A32" stroke-width="3.151" stroke-linecap="round" stroke-linejoin="round"/><line x1="113.603" y1="1092.204" x2="113.603" y2="1127.719" fill="none" stroke="#D84A32" stroke-width="3.151" stroke-linecap="round" stroke-linejoin="round"/><text x="160.531" y="1134.259" fill="#16261F" font-family="Inter, Avenir Next, Helvetica, Arial, sans-serif" font-size="25.337" font-weight="700">Study</text></g>
<g data-use-case="Coding"><rect x="309.96" y="950.4" width="220.32" height="322.56" rx="26.438" fill="#FFFFFF"/><rect x="327.586" y="1087.621" width="52.701" height="36.661" rx="4.583" fill="none" stroke="#D84A32" stroke-width="3.151" stroke-linecap="round" stroke-linejoin="round"/><line x1="339.042" y1="1132.302" x2="368.83" y2="1132.302" fill="none" stroke="#D84A32" stroke-width="3.151" stroke-linecap="round" stroke-linejoin="round"/><line x1="346.489" y1="1100.223" x2="340.761" y2="1105.952" fill="none" stroke="#D84A32" stroke-width="3.151" stroke-linecap="round" stroke-linejoin="round"/><line x1="340.761" y1="1105.952" x2="346.489" y2="1111.68" fill="none" stroke="#D84A32" stroke-width="3.151" stroke-linecap="round" stroke-linejoin="round"/><line x1="361.383" y1="1100.223" x2="367.111" y2="1105.952" fill="none" stroke="#D84A32" stroke-width="3.151" stroke-linecap="round" stroke-linejoin="round"/><line x1="367.111" y1="1105.952" x2="361.383" y2="1111.68" fill="none" stroke="#D84A32" stroke-width="3.151" stroke-linecap="round" stroke-linejoin="round"/><text x="400.291" y="1134.259" fill="#16261F" font-family="Inter, Avenir Next, Helvetica, Arial, sans-serif" font-size="25.337" font-weight="700">Coding</text></g>
<g data-use-case="Career"><rect x="549.72" y="950.4" width="220.32" height="322.56" rx="26.438" fill="#FFFFFF"/><rect x="567.346" y="1097.359" width="52.701" height="33.224" rx="4.583" fill="none" stroke="#D84A32" stroke-width="3.151" stroke-linecap="round" stroke-linejoin="round"/><rect x="584.531" y="1087.621" width="18.331" height="11.457" rx="2.864" fill="none" stroke="#D84A32" stroke-width="3.151" stroke-linecap="round" stroke-linejoin="round"/><line x1="567.346" y1="1110.534" x2="620.046" y2="1110.534" fill="none" stroke="#D84A32" stroke-width="3.151" stroke-linecap="round" stroke-linejoin="round"/><text x="640.051" y="1134.259" fill="#16261F" font-family="Inter, Avenir Next, Helvetica, Arial, sans-serif" font-size="25.337" font-weight="700">Career</text></g>
<g data-use-case="Pick My Bowl"><rect x="789.48" y="950.4" width="220.32" height="322.56" rx="26.438" fill="#FFFFFF"/><ellipse cx="833.456" cy="1103.66" rx="25.777" ry="9.738" fill="none" stroke="#D84A32" stroke-width="3.151" stroke-linecap="round" stroke-linejoin="round"/><path d="M 808.824 1104.806 Q 813.407 1130.011 833.456 1131.156 Q 854.078 1130.011 858.088 1104.806" fill="none" stroke="#D84A32" stroke-width="3.151" stroke-linecap="round" stroke-linejoin="round"/><line x1="846.058" y1="1084.184" x2="856.369" y2="1103.088" fill="none" stroke="#D84A32" stroke-width="3.151" stroke-linecap="round" stroke-linejoin="round"/><text x="879.811" y="1134.259" fill="#16261F" font-family="Inter, Avenir Next, Helvetica, Arial, sans-serif" font-size="25.337" font-weight="700">Pick My Bowl</text></g>
<text x="70.2" y="1731.84" fill="#FFFFFF" font-family="Inter, Avenir Next, Helvetica, Arial, sans-serif" font-size="14.04" font-weight="500"><tspan x="70.2" dy="0">Limited-time YGF promotional Build Credits. Qualifying purchase required. One redemption per person/account. Non-transferable.</tspan><tspan x="70.2" dy="17.971">No cash value. Expires 14 days after redemption. Eligible AI tasks only. Terms and privacy apply.</tspan></text>
<text x="70.2" y="1775.504" fill="#FFFFFF" font-family="Inter, Avenir Next, Helvetica, Arial, sans-serif" font-size="14.04" font-weight="500"><tspan x="70.2" dy="0">This promotion is offered by YGF for the USC community and is not sponsored, endorsed by, or administered by the University of</tspan><tspan x="70.2" dy="17.971">Southern California.</tspan></text>
</svg>
