<?xml version="1.0" encoding="UTF-8"?>
<svg xmlns="http://www.w3.org/2000/svg" xmlns:xlink="http://www.w3.org/1999/xlink" role="img" aria-labelledby="campaign-title campaign-description" width="1200" height="628" viewBox="0 0 1200 628">
<title id="campaign-title">Buy a bowl. Build with AI.</title>
<desc id="campaign-description">YGF Bowl-to-Build campaign creative with a public offer QR code. A private claim code is supplied only after a qualifying purchase.</desc>
<metadata data-renderer="ygf-campaign-v1" data-source="social-horizontal-1200x628" data-public-qr="https://malatangai.com/offer?utm_source=social-horizontal-1200x628"/>
<defs><clipPath id="image-clip-5"><rect x="760" y="31" width="406" height="264" rx="25"/></clipPath></defs>
<rect x="0" y="0" width="1200" height="628" fill="#F6F0E4"/>
<rect x="750" y="315" width="450" height="313" fill="#D84A32"/>
<text x="44" y="42" fill="#D84A32" font-family="Inter, Avenir Next, Helvetica, Arial, sans-serif" font-size="17" font-weight="800" letter-spacing="2.3"><tspan x="44" dy="0">YGF BOWL-TO-BUILD</tspan></text>
<text x="44" y="105" fill="#16261F" font-family="Inter, Avenir Next, Helvetica, Arial, sans-serif" font-size="58" font-weight="800"><tspan x="44" dy="0">Buy a bowl.</tspan><tspan x="44" dy="59">Build with AI.</tspan></text>
<text x="44" y="247" fill="#667868" font-family="Inter, Avenir Next, Helvetica, Arial, sans-serif" font-size="20" font-weight="500"><tspan x="44" dy="0">Spend $25+ at YGF and unlock limited Build Credits for</tspan><tspan x="44" dy="27">study help, coding help, career tasks, and smarter bowl</tspan><tspan x="44" dy="27">picks.</tspan></text>
<image href="../media/malatang-hero.png" x="760" y="31" width="406" height="264" preserveAspectRatio="xMidYMid slice" clip-path="url(#image-clip-5)"/>
<g transform="translate(770 338) scale(3.778)"><g data-qr-url="https://malatangai.com/offer?utm_source=social-horizontal-1200x628" data-qr-modules="37" data-qr-quiet-zone="4"><rect class="qr-background" x="0" y="0" width="45" height="45" fill="#FFFFFF"/><g fill="#16261F"><rect class="qr-module" x="4" y="4" width="1" height="1"/><rect class="qr-module" x="5" y="4" width="1" height="1"/><rect class="qr-module" x="6" y="4" width="1" height="1"/><rect class="qr-module" x="7" y="4" width="1" height="1"/><rect class="qr-module" x="8" y="4" width="1" height="1"/><rect class="qr-module" x="9" y="4" width="1" height="1"/><rect class="qr-module" x="10" y="4" width="1" height="1"/><rect class="qr-module" x="12" y="4" width="1" height="1"/><rect class="qr-module" x="14" y="4" width="1" height="1"/><rect class="qr-module" x="15" y="4" width="1" height="1"/><rect class="qr-module" x="16" y="4" width="1" height="1"/><rect class="qr-module" x="17" y="4" width="1" height="1"/><rect class="qr-module" x="19" y="4" width="1" height="1"/><rect class="qr-module" x="23" y="4" width="1" height="1"/><rect class="qr-module" x="24" y="4" width="1" height="1"/><rect class="qr-module" x="29" y="4" width="1" height="1"/><rect class="qr-module" x="31" y="4" width="1" height="1"/><rect class="qr-module" x="34" y="4" width="1" height="1"/><rect class="qr-module" x="35" y="4" width="1" height="1"/><rect class="qr-module" x="36" y="4" width="1" height="1"/><rect class="qr-module" x="37" y="4" width="1" height="1"/><rect class="qr-module" x="38" y="4" width="1" height="1"/><rect class="qr-module" x="39" y="4" width="1" height="1"/><rect class="qr-module" x="40" y="4" width="1" height="1"/><rect class="qr-module" x="4" y="5" width="1" height="1"/><rect class="qr-module" x="10" y="5" width="1" height="1"/><rect class="qr-module" x="14" y="5" width="1" height="1"/><rect class="qr-module" x="16" y="5" width="1" height="1"/><rect class="qr-module" x="17" y="5" width="1" height="1"/><rect class="qr-module" x="18" y="5" width="1" height="1"/><rect class="qr-module" x="19" y="5" width="1" height="1"/><rect class="qr-module" x="20" y="5" width="1" height="1"/><rect class="qr-module" x="21" y="5" width="1" height="1"/><rect class="qr-module" x="22" y="5" width="1" height="1"/><rect class="qr-module" x="23" y="5" width="1" height="1"/><rect class="qr-module" x="25" y="5" width="1" height="1"/><rect class="qr-module" x="26" y="5" width="1" height="1"/><rect class="qr-module" x="27" y="5" width="1" height="1"/><rect class="qr-module" x="28" y="5" width="1" height="1"/><rect class="qr-module" x="32" y="5" width="1" height="1"/><rect class="qr-module" x="34" y="5" width="1" height="1"/><rect class="qr-module" x="40" y="5" width="1" height="1"/><rect class="qr-module" x="4" y="6" width="1" height="1"/><rect class="qr-module" x="6" y="6" width="1" height="1"/><rect class="qr-module" x="7" y="6" width="1" height="1"/><rect class="qr-module" x="8" y="6" width="1" height="1"/><rect class="qr-module" x="10" y="6" width="1" height="1"/><rect class="qr-module" x="13" y="6" width="1" height="1"/><rect class="qr-module" x="14" y="6" width="1" height="1"/><rect class="qr-module" x="15" y="6" width="1" height="1"/><rect class="qr-module" x="19" y="6" width="1" height="1"/><rect class="qr-module" x="20" y="6" width="1" height="1"/><rect class="qr-module" x="21" y="6" width="1" height="1"/><rect class="qr-module" x="22" y="6" width="1" height="1"/><rect class="qr-module" x="25" y="6" width="1" height="1"/><rect class="qr-module" x="26" y="6" width="1" height="1"/><rect class="qr-module" x="28" y="6" width="1" height="1"/><rect class="qr-module" x="30" y="6" width="1" height="1"/><rect class="qr-module" x="31" y="6" width="1" height="1"/><rect class="qr-module" x="34" y="6" width="1" height="1"/><rect class="qr-module" x="36" y="6" width="1" height="1"/><rect class="qr-module" x="37" y="6" width="1" height="1"/><rect class="qr-module" x="38" y="6" width="1" height="1"/><rect class="qr-module" x="40" y="6" width="1" height="1"/><rect class="qr-module" x="4" y="7" width="1" height="1"/><rect class="qr-module" x="6" y="7" width="1" height="1"/><rect class="qr-module" x="7" y="7" width="1" height="1"/><rect class="qr-module" x="8" y="7" width="1" height="1"/><rect class="qr-module" x="10" y="7" width="1" height="1"/><rect class="qr-module" x="12" y="7" width="1" height="1"/><rect class="qr-module" x="13" y="7" width="1" height="1"/><rect class="qr-module" x="14" y="7" width="1" height="1"/><rect class="qr-module" x="15" y="7" width="1" height="1"/><rect class="qr-module" x="17" y="7" width="1" height="1"/><rect class="qr-module" x="18" y="7" width="1" height="1"/><rect class="qr-module" x="19" y="7" width="1" height="1"/><rect class="qr-module" x="20" y="7" width="1" height="1"/><rect class="qr-module" x="22" y="7" width="1" height="1"/><rect class="qr-module" x="24" y="7" width="1" height="1"/><rect class="qr-module" x="29" y="7" width="1" height="1"/><rect class="qr-module" x="30" y="7" width="1" height="1"/><rect class="qr-module" x="32" y="7" width="1" height="1"/><rect class="qr-module" x="34" y="7" width="1" height="1"/><rect class="qr-module" x="36" y="7" width="1" height="1"/><rect class="qr-module" x="37" y="7" width="1" height="1"/><rect class="qr-module" x="38" y="7" width="1" height="1"/><rect class="qr-module" x="40" y="7" width="1" height="1"/><rect class="qr-module" x="4" y="8" width="1" height="1"/><rect class="qr-module" x="6" y="8" width="1" height="1"/><rect class="qr-module" x="7" y="8" width="1" height="1"/><rect class="qr-module" x="8" y="8" width="1" height="1"/><rect class="qr-module" x="10" y="8" width="1" height="1"/><rect class="qr-module" x="12" y="8" width="1" height="1"/><rect class="qr-module" x="13" y="8" width="1" height="1"/><rect class="qr-module" x="14" y="8" width="1" height="1"/><rect class="qr-module" x="17" y="8" width="1" height="1"/><rect class="qr-module" x="18" y="8" width="1" height="1"/><rect class="qr-module" x="20" y="8" width="1" height="1"/><rect class="qr-module" x="21" y="8" width="1" height="1"/><rect class="qr-module" x="22" y="8" width="1" height="1"/><rect class="qr-module" x="27" y="8" width="1" height="1"/><rect class="qr-module" x="29" y="8" width="1" height="1"/><rect class="qr-module" x="30" y="8" width="1" height="1"/><rect class="qr-module" x="31" y="8" width="1" height="1"/><rect class="qr-module" x="32" y="8" width="1" height="1"/><rect class="qr-module" x="34" y="8" width="1" height="1"/><rect class="qr-module" x="36" y="8" width="1" height="1"/><rect class="qr-module" x="37" y="8" width="1" height="1"/><rect class="qr-module" x="38" y="8" width="1" height="1"/><rect class="qr-module" x="40" y="8" width="1" height="1"/><rect class="qr-module" x="4" y="9" width="1" height="1"/><rect class="qr-module" x="10" y="9" width="1" height="1"/><rect class="qr-module" x="12" y="9" width="1" height="1"/><rect class="qr-module" x="13" y="9" width="1" height="1"/><rect class="qr-module" x="15" y="9" width="1" height="1"/><rect class="qr-module" x="17" y="9" width="1" height="1"/><rect class="qr-module" x="18" y="9" width="1" height="1"/><rect class="qr-module" x="19" y="9" width="1" height="1"/><rect class="qr-module" x="20" y="9" width="1" height="1"/><rect class="qr-module" x="21" y="9" width="1" height="1"/><rect class="qr-module" x="23" y="9" width="1" height="1"/><rect class="qr-module" x="29" y="9" width="1" height="1"/><rect class="qr-module" x="30" y="9" width="1" height="1"/><rect class="qr-module" x="34" y="9" width="1" height="1"/><rect class="qr-module" x="40" y="9" width="1" height="1"/><rect class="qr-module" x="4" y="10" width="1" height="1"/><rect class="qr-module" x="5" y="10" width="1" height="1"/><rect class="qr-module" x="6" y="10" width="1" height="1"/><rect class="qr-module" x="7" y="10" width="1" height="1"/><rect class="qr-module" x="8" y="10" width="1" height="1"/><rect class="qr-module" x="9" y="10" width="1" height="1"/><rect class="qr-module" x="10" y="10" width="1" height="1"/><rect class="qr-module" x="12" y="10" width="1" height="1"/><rect class="qr-module" x="14" y="10" width="1" height="1"/><rect class="qr-module" x="16" y="10" width="1" height="1"/><rect class="qr-module" x="18" y="10" width="1" height="1"/><rect class="qr-module" x="20" y="10" width="1" height="1"/><rect class="qr-module" x="22" y="10" width="1" height="1"/><rect class="qr-module" x="24" y="10" width="1" height="1"/><rect class="qr-module" x="26" y="10" width="1" height="1"/><rect class="qr-module" x="28" y="10" width="1" height="1"/><rect class="qr-module" x="30" y="10" width="1" height="1"/><rect class="qr-module" x="32" y="10" width="1" height="1"/><rect class="qr-module" x="34" y="10" width="1" height="1"/><rect class="qr-module" x="35" y="10" width="1" height="1"/><rect class="qr-module" x="36" y="10" width="1" height="1"/><rect class="qr-module" x="37" y="10" width="1" height="1"/><rect class="qr-module" x="38" y="10" width="1" height="1"/><rect class="qr-module" x="39" y="10" width="1" height="1"/><rect class="qr-module" x="40" y="10" width="1" height="1"/><rect class="qr-module" x="12" y="11" width="1" height="1"/><rect class="qr-module" x="13" y="11" width="1" height="1"/><rect class="qr-module" x="15" y="11" width="1" height="1"/><rect class="qr-module" x="16" y="11" width="1" height="1"/><rect class="qr-module" x="18" y="11" width="1" height="1"/><rect class="qr-module" x="19" y="11" width="1" height="1"/><rect class="qr-module" x="20" y="11" width="1" height="1"/><rect class="qr-module" x="23" y="11" width="1" height="1"/><rect class="qr-module" x="24" y="11" width="1" height="1"/><rect class="qr-module" x="25" y="11" width="1" height="1"/><rect class="qr-module" x="28" y="11" width="1" height="1"/><rect class="qr-module" x="30" y="11" width="1" height="1"/><rect class="qr-module" x="4" y="12" width="1" height="1"/><rect class="qr-module" x="8" y="12" width="1" height="1"/><rect class="qr-module" x="10" y="12" width="1" height="1"/><rect class="qr-module" x="11" y="12" width="1" height="1"/><rect class="qr-module" x="12" y="12" width="1" height="1"/><rect class="qr-module" x="14" y="12" width="1" height="1"/><rect class="qr-module" x="18" y="12" width="1" height="1"/><rect class="qr-module" x="20" y="12" width="1" height="1"/><rect class="qr-module" x="24" y="12" width="1" height="1"/><rect class="qr-module" x="27" y="12" width="1" height="1"/><rect class="qr-module" x="28" y="12" width="1" height="1"/><rect class="qr-module" x="30" y="12" width="1" height="1"/><rect class="qr-module" x="31" y="12" width="1" height="1"/><rect class="qr-module" x="33" y="12" width="1" height="1"/><rect class="qr-module" x="34" y="12" width="1" height="1"/><rect class="qr-module" x="35" y="12" width="1" height="1"/><rect class="qr-module" x="36" y="12" width="1" height="1"/><rect class="qr-module" x="37" y="12" width="1" height="1"/><rect class="qr-module" x="40" y="12" width="1" height="1"/><rect class="qr-module" x="4" y="13" width="1" height="1"/><rect class="qr-module" x="5" y="13" width="1" height="1"/><rect class="qr-module" x="6" y="13" width="1" height="1"/><rect class="qr-module" x="14" y="13" width="1" height="1"/><rect class="qr-module" x="17" y="13" width="1" height="1"/><rect class="qr-module" x="21" y="13" width="1" height="1"/><rect class="qr-module" x="22" y="13" width="1" height="1"/><rect class="qr-module" x="23" y="13" width="1" height="1"/><rect class="qr-module" x="26" y="13" width="1" height="1"/><rect class="qr-module" x="28" y="13" width="1" height="1"/><rect class="qr-module" x="29" y="13" width="1" height="1"/><rect class="qr-module" x="31" y="13" width="1" height="1"/><rect class="qr-module" x="33" y="13" width="1" height="1"/><rect class="qr-module" x="36" y="13" width="1" height="1"/><rect class="qr-module" x="39" y="13" width="1" height="1"/><rect class="qr-module" x="8" y="14" width="1" height="1"/><rect class="qr-module" x="9" y="14" width="1" height="1"/><rect class="qr-module" x="10" y="14" width="1" height="1"/><rect class="qr-module" x="11" y="14" width="1" height="1"/><rect class="qr-module" x="13" y="14" width="1" height="1"/><rect class="qr-module" x="15" y="14" width="1" height="1"/><rect class="qr-module" x="17" y="14" width="1" height="1"/><rect class="qr-module" x="19" y="14" width="1" height="1"/><rect class="qr-module" x="22" y="14" width="1" height="1"/><rect class="qr-module" x="23" y="14" width="1" height="1"/><rect class="qr-module" x="27" y="14" width="1" height="1"/><rect class="qr-module" x="31" y="14" width="1" height="1"/><rect class="qr-module" x="32" y="14" width="1" height="1"/><rect class="qr-module" x="34" y="14" width="1" height="1"/><rect class="qr-module" x="35" y="14" width="1" height="1"/><rect class="qr-module" x="38" y="14" width="1" height="1"/><rect class="qr-module" x="5" y="15" width="1" height="1"/><rect class="qr-module" x="6" y="15" width="1" height="1"/><rect class="qr-module" x="9" y="15" width="1" height="1"/><rect class="qr-module" x="11" y="15" width="1" height="1"/><rect class="qr-module" x="12" y="15" width="1" height="1"/><rect class="qr-module" x="16" y="15" width="1" height="1"/><rect class="qr-module" x="18" y="15" width="1" height="1"/><rect class="qr-module" x="19" y="15" width="1" height="1"/><rect class="qr-module" x="20" y="15" width="1" height="1"/><rect class="qr-module" x="21" y="15" width="1" height="1"/><rect class="qr-module" x="22" y="15" width="1" height="1"/><rect class="qr-module" x="23" y="15" width="1" height="1"/><rect class="qr-module" x="24" y="15" width="1" height="1"/><rect class="qr-module" x="25" y="15" width="1" height="1"/><rect class="qr-module" x="26" y="15" width="1" height="1"/><rect class="qr-module" x="27" y="15" width="1" height="1"/><rect class="qr-module" x="28" y="15" width="1" height="1"/><rect class="qr-module" x="30" y="15" width="1" height="1"/><rect class="qr-module" x="31" y="15" width="1" height="1"/><rect class="qr-module" x="36" y="15" width="1" height="1"/><rect class="qr-module" x="38" y="15" width="1" height="1"/><rect class="qr-module" x="39" y="15" width="1" height="1"/><rect class="qr-module" x="4" y="16" width="1" height="1"/><rect class="qr-module" x="5" y="16" width="1" height="1"/><rect class="qr-module" x="6" y="16" width="1" height="1"/><rect class="qr-module" x="8" y="16" width="1" height="1"/><rect class="qr-module" x="9" y="16" width="1" height="1"/><rect class="qr-module" x="10" y="16" width="1" height="1"/><rect class="qr-module" x="16" y="16" width="1" height="1"/><rect class="qr-module" x="18" y="16" width="1" height="1"/><rect class="qr-module" x="21" y="16" width="1" height="1"/><rect class="qr-module" x="25" y="16" width="1" height="1"/><rect class="qr-module" x="26" y="16" width="1" height="1"/><rect class="qr-module" x="28" y="16" width="1" height="1"/><rect class="qr-module" x="31" y="16" width="1" height="1"/><rect class="qr-module" x="33" y="16" width="1" height="1"/><rect class="qr-module" x="34" y="16" width="1" height="1"/><rect class="qr-module" x="35" y="16" width="1" height="1"/><rect class="qr-module" x="38" y="16" width="1" height="1"/><rect class="qr-module" x="39" y="16" width="1" height="1"/><rect class="qr-module" x="40" y="16" width="1" height="1"/><rect class="qr-module" x="5" y="17" width="1" height="1"/><rect class="qr-module" x="11" y="17" width="1" height="1"/><rect class="qr-module" x="12" y="17" width="1" height="1"/><rect class="qr-module" x="14" y="17" width="1" height="1"/><rect class="qr-module" x="15" y="17" width="1" height="1"/><rect class="qr-module" x="17" y="17" width="1" height="1"/><rect class="qr-module" x="19" y="17" width="1" height="1"/><rect class="qr-module" x="20" y="17" width="1" height="1"/><rect class="qr-module" x="23" y="17" width="1" height="1"/><rect class="qr-module" x="25" y="17" width="1" height="1"/><rect class="qr-module" x="27" y="17" width="1" height="1"/><rect class="qr-module" x="29" y="17" width="1" height="1"/><rect class="qr-module" x="30" y="17" width="1" height="1"/><rect class="qr-module" x="31" y="17" width="1" height="1"/><rect class="qr-module" x="32" y="17" width="1" height="1"/><rect class="qr-module" x="36" y="17" width="1" height="1"/><rect class="qr-module" x="37" y="17" width="1" height="1"/><rect class="qr-module" x="6" y="18" width="1" height="1"/><rect class="qr-module" x="8" y="18" width="1" height="1"/><rect class="qr-module" x="9" y="18" width="1" height="1"/><rect class="qr-module" x="10" y="18" width="1" height="1"/><rect class="qr-module" x="13" y="18" width="1" height="1"/><rect class="qr-module" x="15" y="18" width="1" height="1"/><rect class="qr-module" x="18" y="18" width="1" height="1"/><rect class="qr-module" x="19" y="18" width="1" height="1"/><rect class="qr-module" x="21" y="18" width="1" height="1"/><rect class="qr-module" x="24" y="18" width="1" height="1"/><rect class="qr-module" x="27" y="18" width="1" height="1"/><rect class="qr-module" x="28" y="18" width="1" height="1"/><rect class="qr-module" x="29" y="18" width="1" height="1"/><rect class="qr-module" x="31" y="18" width="1" height="1"/><rect class="qr-module" x="33" y="18" width="1" height="1"/><rect class="qr-module" x="34" y="18" width="1" height="1"/><rect class="qr-module" x="35" y="18" width="1" height="1"/><rect class="qr-module" x="36" y="18" width="1" height="1"/><rect class="qr-module" x="37" y="18" width="1" height="1"/><rect class="qr-module" x="38" y="18" width="1" height="1"/><rect class="qr-module" x="4" y="19" width="1" height="1"/><rect class="qr-module" x="5" y="19" width="1" height="1"/><rect class="qr-module" x="8" y="19" width="1" height="1"/><rect class="qr-module" x="9" y="19" width="1" height="1"/><rect class="qr-module" x="12" y="19" width="1" height="1"/><rect class="qr-module" x="13" y="19" width="1" height="1"/><rect class="qr-module" x="14" y="19" width="1" height="1"/><rect class="qr-module" x="20" y="19" width="1" height="1"/><rect class="qr-module" x="21" y="19" width="1" height="1"/><rect class="qr-module" x="22" y="19" width="1" height="1"/><rect class="qr-module" x="24" y="19" width="1" height="1"/><rect class="qr-module" x="26" y="19" width="1" height="1"/><rect class="qr-module" x="28" y="19" width="1" height="1"/><rect class="qr-module" x="31" y="19" width="1" height="1"/><rect class="qr-module" x="32" y="19" width="1" height="1"/><rect class="qr-module" x="33" y="19" width="1" height="1"/><rect class="qr-module" x="34" y="19" width="1" height="1"/><rect class="qr-module" x="35" y="19" width="1" height="1"/><rect class="qr-module" x="36" y="19" width="1" height="1"/><rect class="qr-module" x="38" y="19" width="1" height="1"/><rect class="qr-module" x="5" y="20" width="1" height="1"/><rect class="qr-module" x="9" y="20" width="1" height="1"/><rect class="qr-module" x="10" y="20" width="1" height="1"/><rect class="qr-module" x="12" y="20" width="1" height="1"/><rect class="qr-module" x="15" y="20" width="1" height="1"/><rect class="qr-module" x="16" y="20" width="1" height="1"/><rect class="qr-module" x="17" y="20" width="1" height="1"/><rect class="qr-module" x="22" y="20" width="1" height="1"/><rect class="qr-module" x="26" y="20" width="1" height="1"/><rect class="qr-module" x="27" y="20" width="1" height="1"/><rect class="qr-module" x="30" y="20" width="1" height="1"/><rect class="qr-module" x="33" y="20" width="1" height="1"/><rect class="qr-module" x="34" y="20" width="1" height="1"/><rect class="qr-module" x="35" y="20" width="1" height="1"/><rect class="qr-module" x="37" y="20" width="1" height="1"/><rect class="qr-module" x="38" y="20" width="1" height="1"/><rect class="qr-module" x="4" y="21" width="1" height="1"/><rect class="qr-module" x="5" y="21" width="1" height="1"/><rect class="qr-module" x="6" y="21" width="1" height="1"/><rect class="qr-module" x="8" y="21" width="1" height="1"/><rect class="qr-module" x="9" y="21" width="1" height="1"/><rect class="qr-module" x="11" y="21" width="1" height="1"/><rect class="qr-module" x="15" y="21" width="1" height="1"/><rect class="qr-module" x="17" y="21" width="1" height="1"/><rect class="qr-module" x="18" y="21" width="1" height="1"/><rect class="qr-module" x="20" y="21" width="1" height="1"/><rect class="qr-module" x="23" y="21" width="1" height="1"/><rect class="qr-module" x="24" y="21" width="1" height="1"/><rect class="qr-module" x="27" y="21" width="1" height="1"/><rect class="qr-module" x="31" y="21" width="1" height="1"/><rect class="qr-module" x="32" y="21" width="1" height="1"/><rect class="qr-module" x="36" y="21" width="1" height="1"/><rect class="qr-module" x="37" y="21" width="1" height="1"/><rect class="qr-module" x="38" y="21" width="1" height="1"/><rect class="qr-module" x="39" y="21" width="1" height="1"/><rect class="qr-module" x="7" y="22" width="1" height="1"/><rect class="qr-module" x="8" y="22" width="1" height="1"/><rect class="qr-module" x="9" y="22" width="1" height="1"/><rect class="qr-module" x="10" y="22" width="1" height="1"/><rect class="qr-module" x="13" y="22" width="1" height="1"/><rect class="qr-module" x="14" y="22" width="1" height="1"/><rect class="qr-module" x="15" y="22" width="1" height="1"/><rect class="qr-module" x="16" y="22" width="1" height="1"/><rect class="qr-module" x="18" y="22" width="1" height="1"/><rect class="qr-module" x="20" y="22" width="1" height="1"/><rect class="qr-module" x="21" y="22" width="1" height="1"/><rect class="qr-module" x="22" y="22" width="1" height="1"/><rect class="qr-module" x="24" y="22" width="1" height="1"/><rect class="qr-module" x="25" y="22" width="1" height="1"/><rect class="qr-module" x="27" y="22" width="1" height="1"/><rect class="qr-module" x="31" y="22" width="1" height="1"/><rect class="qr-module" x="33" y="22" width="1" height="1"/><rect class="qr-module" x="36" y="22" width="1" height="1"/><rect class="qr-module" x="37" y="22" width="1" height="1"/><rect class="qr-module" x="38" y="22" width="1" height="1"/><rect class="qr-module" x="4" y="23" width="1" height="1"/><rect class="qr-module" x="5" y="23" width="1" height="1"/><rect class="qr-module" x="8" y="23" width="1" height="1"/><rect class="qr-module" x="11" y="23" width="1" height="1"/><rect class="qr-module" x="12" y="23" width="1" height="1"/><rect class="qr-module" x="13" y="23" width="1" height="1"/><rect class="qr-module" x="15" y="23" width="1" height="1"/><rect class="qr-module" x="16" y="23" width="1" height="1"/><rect class="qr-module" x="17" y="23" width="1" height="1"/><rect class="qr-module" x="21" y="23" width="1" height="1"/><rect class="qr-module" x="22" y="23" width="1" height="1"/><rect class="qr-module" x="25" y="23" width="1" height="1"/><rect class="qr-module" x="28" y="23" width="1" height="1"/><rect class="qr-module" x="30" y="23" width="1" height="1"/><rect class="qr-module" x="31" y="23" width="1" height="1"/><rect class="qr-module" x="32" y="23" width="1" height="1"/><rect class="qr-module" x="37" y="23" width="1" height="1"/><rect class="qr-module" x="38" y="23" width="1" height="1"/><rect class="qr-module" x="39" y="23" width="1" height="1"/><rect class="qr-module" x="5" y="24" width="1" height="1"/><rect class="qr-module" x="6" y="24" width="1" height="1"/><rect class="qr-module" x="7" y="24" width="1" height="1"/><rect class="qr-module" x="8" y="24" width="1" height="1"/><rect class="qr-module" x="9" y="24" width="1" height="1"/><rect class="qr-module" x="10" y="24" width="1" height="1"/><rect class="qr-module" x="11" y="24" width="1" height="1"/><rect class="qr-module" x="15" y="24" width="1" height="1"/><rect class="qr-module" x="16" y="24" width="1" height="1"/><rect class="qr-module" x="19" y="24" width="1" height="1"/><rect class="qr-module" x="20" y="24" width="1" height="1"/><rect class="qr-module" x="21" y="24" width="1" height="1"/><rect class="qr-module" x="23" y="24" width="1" height="1"/><rect class="qr-module" x="24" y="24" width="1" height="1"/><rect class="qr-module" x="25" y="24" width="1" height="1"/><rect class="qr-module" x="26" y="24" width="1" height="1"/><rect class="qr-module" x="27" y="24" width="1" height="1"/><rect class="qr-module" x="28" y="24" width="1" height="1"/><rect class="qr-module" x="30" y="24" width="1" height="1"/><rect class="qr-module" x="33" y="24" width="1" height="1"/><rect class="qr-module" x="34" y="24" width="1" height="1"/><rect class="qr-module" x="35" y="24" width="1" height="1"/><rect class="qr-module" x="38" y="24" width="1" height="1"/><rect class="qr-module" x="4" y="25" width="1" height="1"/><rect class="qr-module" x="5" y="25" width="1" height="1"/><rect class="qr-module" x="7" y="25" width="1" height="1"/><rect class="qr-module" x="8" y="25" width="1" height="1"/><rect class="qr-module" x="9" y="25" width="1" height="1"/><rect class="qr-module" x="11" y="25" width="1" height="1"/><rect class="qr-module" x="13" y="25" width="1" height="1"/><rect class="qr-module" x="15" y="25" width="1" height="1"/><rect class="qr-module" x="16" y="25" width="1" height="1"/><rect class="qr-module" x="18" y="25" width="1" height="1"/><rect class="qr-module" x="19" y="25" width="1" height="1"/><rect class="qr-module" x="20" y="25" width="1" height="1"/><rect class="qr-module" x="21" y="25" width="1" height="1"/><rect class="qr-module" x="26" y="25" width="1" height="1"/><rect class="qr-module" x="27" y="25" width="1" height="1"/><rect class="qr-module" x="28" y="25" width="1" height="1"/><rect class="qr-module" x="29" y="25" width="1" height="1"/><rect class="qr-module" x="30" y="25" width="1" height="1"/><rect class="qr-module" x="31" y="25" width="1" height="1"/><rect class="qr-module" x="32" y="25" width="1" height="1"/><rect class="qr-module" x="35" y="25" width="1" height="1"/><rect class="qr-module" x="36" y="25" width="1" height="1"/><rect class="qr-module" x="4" y="26" width="1" height="1"/><rect class="qr-module" x="7" y="26" width="1" height="1"/><rect class="qr-module" x="10" y="26" width="1" height="1"/><rect class="qr-module" x="11" y="26" width="1" height="1"/><rect class="qr-module" x="16" y="26" width="1" height="1"/><rect class="qr-module" x="19" y="26" width="1" height="1"/><rect class="qr-module" x="22" y="26" width="1" height="1"/><rect class="qr-module" x="25" y="26" width="1" height="1"/><rect class="qr-module" x="26" y="26" width="1" height="1"/><rect class="qr-module" x="27" y="26" width="1" height="1"/><rect class="qr-module" x="28" y="26" width="1" height="1"/><rect class="qr-module" x="31" y="26" width="1" height="1"/><rect class="qr-module" x="32" y="26" width="1" height="1"/><rect class="qr-module" x="34" y="26" width="1" height="1"/><rect class="qr-module" x="35" y="26" width="1" height="1"/><rect class="qr-module" x="36" y="26" width="1" height="1"/><rect class="qr-module" x="37" y="26" width="1" height="1"/><rect class="qr-module" x="38" y="26" width="1" height="1"/><rect class="qr-module" x="7" y="27" width="1" height="1"/><rect class="qr-module" x="9" y="27" width="1" height="1"/><rect class="qr-module" x="11" y="27" width="1" height="1"/><rect class="qr-module" x="12" y="27" width="1" height="1"/><rect class="qr-module" x="13" y="27" width="1" height="1"/><rect class="qr-module" x="14" y="27" width="1" height="1"/><rect class="qr-module" x="18" y="27" width="1" height="1"/><rect class="qr-module" x="19" y="27" width="1" height="1"/><rect class="qr-module" x="24" y="27" width="1" height="1"/><rect class="qr-module" x="25" y="27" width="1" height="1"/><rect class="qr-module" x="27" y="27" width="1" height="1"/><rect class="qr-module" x="28" y="27" width="1" height="1"/><rect class="qr-module" x="31" y="27" width="1" height="1"/><rect class="qr-module" x="34" y="27" width="1" height="1"/><rect class="qr-module" x="35" y="27" width="1" height="1"/><rect class="qr-module" x="36" y="27" width="1" height="1"/><rect class="qr-module" x="38" y="27" width="1" height="1"/><rect class="qr-module" x="40" y="27" width="1" height="1"/><rect class="qr-module" x="4" y="28" width="1" height="1"/><rect class="qr-module" x="5" y="28" width="1" height="1"/><rect class="qr-module" x="9" y="28" width="1" height="1"/><rect class="qr-module" x="10" y="28" width="1" height="1"/><rect class="qr-module" x="11" y="28" width="1" height="1"/><rect class="qr-module" x="14" y="28" width="1" height="1"/><rect class="qr-module" x="19" y="28" width="1" height="1"/><rect class="qr-module" x="20" y="28" width="1" height="1"/><rect class="qr-module" x="23" y="28" width="1" height="1"/><rect class="qr-module" x="24" y="28" width="1" height="1"/><rect class="qr-module" x="27" y="28" width="1" height="1"/><rect class="qr-module" x="28" y="28" width="1" height="1"/><rect class="qr-module" x="30" y="28" width="1" height="1"/><rect class="qr-module" x="33" y="28" width="1" height="1"/><rect class="qr-module" x="34" y="28" width="1" height="1"/><rect class="qr-module" x="37" y="28" width="1" height="1"/><rect class="qr-module" x="38" y="28" width="1" height="1"/><rect class="qr-module" x="40" y="28" width="1" height="1"/><rect class="qr-module" x="4" y="29" width="1" height="1"/><rect class="qr-module" x="6" y="29" width="1" height="1"/><rect class="qr-module" x="7" y="29" width="1" height="1"/><rect class="qr-module" x="9" y="29" width="1" height="1"/><rect class="qr-module" x="13" y="29" width="1" height="1"/><rect class="qr-module" x="14" y="29" width="1" height="1"/><rect class="qr-module" x="16" y="29" width="1" height="1"/><rect class="qr-module" x="18" y="29" width="1" height="1"/><rect class="qr-module" x="22" y="29" width="1" height="1"/><rect class="qr-module" x="23" y="29" width="1" height="1"/><rect class="qr-module" x="26" y="29" width="1" height="1"/><rect class="qr-module" x="28" y="29" width="1" height="1"/><rect class="qr-module" x="31" y="29" width="1" height="1"/><rect class="qr-module" x="32" y="29" width="1" height="1"/><rect class="qr-module" x="36" y="29" width="1" height="1"/><rect class="qr-module" x="37" y="29" width="1" height="1"/><rect class="qr-module" x="38" y="29" width="1" height="1"/><rect class="qr-module" x="6" y="30" width="1" height="1"/><rect class="qr-module" x="8" y="30" width="1" height="1"/><rect class="qr-module" x="10" y="30" width="1" height="1"/><rect class="qr-module" x="11" y="30" width="1" height="1"/><rect class="qr-module" x="12" y="30" width="1" height="1"/><rect class="qr-module" x="13" y="30" width="1" height="1"/><rect class="qr-module" x="14" y="30" width="1" height="1"/><rect class="qr-module" x="15" y="30" width="1" height="1"/><rect class="qr-module" x="16" y="30" width="1" height="1"/><rect class="qr-module" x="17" y="30" width="1" height="1"/><rect class="qr-module" x="19" y="30" width="1" height="1"/><rect class="qr-module" x="23" y="30" width="1" height="1"/><rect class="qr-module" x="26" y="30" width="1" height="1"/><rect class="qr-module" x="27" y="30" width="1" height="1"/><rect class="qr-module" x="29" y="30" width="1" height="1"/><rect class="qr-module" x="30" y="30" width="1" height="1"/><rect class="qr-module" x="31" y="30" width="1" height="1"/><rect class="qr-module" x="32" y="30" width="1" height="1"/><rect class="qr-module" x="34" y="30" width="1" height="1"/><rect class="qr-module" x="35" y="30" width="1" height="1"/><rect class="qr-module" x="36" y="30" width="1" height="1"/><rect class="qr-module" x="38" y="30" width="1" height="1"/><rect class="qr-module" x="6" y="31" width="1" height="1"/><rect class="qr-module" x="7" y="31" width="1" height="1"/><rect class="qr-module" x="11" y="31" width="1" height="1"/><rect class="qr-module" x="12" y="31" width="1" height="1"/><rect class="qr-module" x="17" y="31" width="1" height="1"/><rect class="qr-module" x="19" y="31" width="1" height="1"/><rect class="qr-module" x="20" y="31" width="1" height="1"/><rect class="qr-module" x="21" y="31" width="1" height="1"/><rect class="qr-module" x="23" y="31" width="1" height="1"/><rect class="qr-module" x="24" y="31" width="1" height="1"/><rect class="qr-module" x="25" y="31" width="1" height="1"/><rect class="qr-module" x="26" y="31" width="1" height="1"/><rect class="qr-module" x="27" y="31" width="1" height="1"/><rect class="qr-module" x="31" y="31" width="1" height="1"/><rect class="qr-module" x="33" y="31" width="1" height="1"/><rect class="qr-module" x="35" y="31" width="1" height="1"/><rect class="qr-module" x="36" y="31" width="1" height="1"/><rect class="qr-module" x="38" y="31" width="1" height="1"/><rect class="qr-module" x="40" y="31" width="1" height="1"/><rect class="qr-module" x="4" y="32" width="1" height="1"/><rect class="qr-module" x="5" y="32" width="1" height="1"/><rect class="qr-module" x="8" y="32" width="1" height="1"/><rect class="qr-module" x="9" y="32" width="1" height="1"/><rect class="qr-module" x="10" y="32" width="1" height="1"/><rect class="qr-module" x="11" y="32" width="1" height="1"/><rect class="qr-module" x="13" y="32" width="1" height="1"/><rect class="qr-module" x="18" y="32" width="1" height="1"/><rect class="qr-module" x="20" y="32" width="1" height="1"/><rect class="qr-module" x="21" y="32" width="1" height="1"/><rect class="qr-module" x="25" y="32" width="1" height="1"/><rect class="qr-module" x="28" y="32" width="1" height="1"/><rect class="qr-module" x="32" y="32" width="1" height="1"/><rect class="qr-module" x="33" y="32" width="1" height="1"/><rect class="qr-module" x="34" y="32" width="1" height="1"/><rect class="qr-module" x="35" y="32" width="1" height="1"/><rect class="qr-module" x="36" y="32" width="1" height="1"/><rect class="qr-module" x="38" y="32" width="1" height="1"/><rect class="qr-module" x="39" y="32" width="1" height="1"/><rect class="qr-module" x="12" y="33" width="1" height="1"/><rect class="qr-module" x="13" y="33" width="1" height="1"/><rect class="qr-module" x="16" y="33" width="1" height="1"/><rect class="qr-module" x="19" y="33" width="1" height="1"/><rect class="qr-module" x="22" y="33" width="1" height="1"/><rect class="qr-module" x="25" y="33" width="1" height="1"/><rect class="qr-module" x="26" y="33" width="1" height="1"/><rect class="qr-module" x="27" y="33" width="1" height="1"/><rect class="qr-module" x="29" y="33" width="1" height="1"/><rect class="qr-module" x="30" y="33" width="1" height="1"/><rect class="qr-module" x="31" y="33" width="1" height="1"/><rect class="qr-module" x="32" y="33" width="1" height="1"/><rect class="qr-module" x="36" y="33" width="1" height="1"/><rect class="qr-module" x="4" y="34" width="1" height="1"/><rect class="qr-module" x="5" y="34" width="1" height="1"/><rect class="qr-module" x="6" y="34" width="1" height="1"/><rect class="qr-module" x="7" y="34" width="1" height="1"/><rect class="qr-module" x="8" y="34" width="1" height="1"/><rect class="qr-module" x="9" y="34" width="1" height="1"/><rect class="qr-module" x="10" y="34" width="1" height="1"/><rect class="qr-module" x="12" y="34" width="1" height="1"/><rect class="qr-module" x="13" y="34" width="1" height="1"/><rect class="qr-module" x="15" y="34" width="1" height="1"/><rect class="qr-module" x="16" y="34" width="1" height="1"/><rect class="qr-module" x="19" y="34" width="1" height="1"/><rect class="qr-module" x="21" y="34" width="1" height="1"/><rect class="qr-module" x="24" y="34" width="1" height="1"/><rect class="qr-module" x="27" y="34" width="1" height="1"/><rect class="qr-module" x="28" y="34" width="1" height="1"/><rect class="qr-module" x="32" y="34" width="1" height="1"/><rect class="qr-module" x="34" y="34" width="1" height="1"/><rect class="qr-module" x="36" y="34" width="1" height="1"/><rect class="qr-module" x="4" y="35" width="1" height="1"/><rect class="qr-module" x="10" y="35" width="1" height="1"/><rect class="qr-module" x="14" y="35" width="1" height="1"/><rect class="qr-module" x="16" y="35" width="1" height="1"/><rect class="qr-module" x="19" y="35" width="1" height="1"/><rect class="qr-module" x="21" y="35" width="1" height="1"/><rect class="qr-module" x="22" y="35" width="1" height="1"/><rect class="qr-module" x="24" y="35" width="1" height="1"/><rect class="qr-module" x="26" y="35" width="1" height="1"/><rect class="qr-module" x="28" y="35" width="1" height="1"/><rect class="qr-module" x="32" y="35" width="1" height="1"/><rect class="qr-module" x="36" y="35" width="1" height="1"/><rect class="qr-module" x="37" y="35" width="1" height="1"/><rect class="qr-module" x="38" y="35" width="1" height="1"/><rect class="qr-module" x="40" y="35" width="1" height="1"/><rect class="qr-module" x="4" y="36" width="1" height="1"/><rect class="qr-module" x="6" y="36" width="1" height="1"/><rect class="qr-module" x="7" y="36" width="1" height="1"/><rect class="qr-module" x="8" y="36" width="1" height="1"/><rect class="qr-module" x="10" y="36" width="1" height="1"/><rect class="qr-module" x="12" y="36" width="1" height="1"/><rect class="qr-module" x="15" y="36" width="1" height="1"/><rect class="qr-module" x="17" y="36" width="1" height="1"/><rect class="qr-module" x="22" y="36" width="1" height="1"/><rect class="qr-module" x="23" y="36" width="1" height="1"/><rect class="qr-module" x="26" y="36" width="1" height="1"/><rect class="qr-module" x="27" y="36" width="1" height="1"/><rect class="qr-module" x="32" y="36" width="1" height="1"/><rect class="qr-module" x="33" y="36" width="1" height="1"/><rect class="qr-module" x="34" y="36" width="1" height="1"/><rect class="qr-module" x="35" y="36" width="1" height="1"/><rect class="qr-module" x="36" y="36" width="1" height="1"/><rect class="qr-module" x="37" y="36" width="1" height="1"/><rect class="qr-module" x="38" y="36" width="1" height="1"/><rect class="qr-module" x="39" y="36" width="1" height="1"/><rect class="qr-module" x="4" y="37" width="1" height="1"/><rect class="qr-module" x="6" y="37" width="1" height="1"/><rect class="qr-module" x="7" y="37" width="1" height="1"/><rect class="qr-module" x="8" y="37" width="1" height="1"/><rect class="qr-module" x="10" y="37" width="1" height="1"/><rect class="qr-module" x="13" y="37" width="1" height="1"/><rect class="qr-module" x="14" y="37" width="1" height="1"/><rect class="qr-module" x="16" y="37" width="1" height="1"/><rect class="qr-module" x="17" y="37" width="1" height="1"/><rect class="qr-module" x="18" y="37" width="1" height="1"/><rect class="qr-module" x="20" y="37" width="1" height="1"/><rect class="qr-module" x="23" y="37" width="1" height="1"/><rect class="qr-module" x="24" y="37" width="1" height="1"/><rect class="qr-module" x="25" y="37" width="1" height="1"/><rect class="qr-module" x="28" y="37" width="1" height="1"/><rect class="qr-module" x="29" y="37" width="1" height="1"/><rect class="qr-module" x="31" y="37" width="1" height="1"/><rect class="qr-module" x="33" y="37" width="1" height="1"/><rect class="qr-module" x="34" y="37" width="1" height="1"/><rect class="qr-module" x="35" y="37" width="1" height="1"/><rect class="qr-module" x="38" y="37" width="1" height="1"/><rect class="qr-module" x="39" y="37" width="1" height="1"/><rect class="qr-module" x="4" y="38" width="1" height="1"/><rect class="qr-module" x="6" y="38" width="1" height="1"/><rect class="qr-module" x="7" y="38" width="1" height="1"/><rect class="qr-module" x="8" y="38" width="1" height="1"/><rect class="qr-module" x="10" y="38" width="1" height="1"/><rect class="qr-module" x="14" y="38" width="1" height="1"/><rect class="qr-module" x="15" y="38" width="1" height="1"/><rect class="qr-module" x="17" y="38" width="1" height="1"/><rect class="qr-module" x="18" y="38" width="1" height="1"/><rect class="qr-module" x="20" y="38" width="1" height="1"/><rect class="qr-module" x="24" y="38" width="1" height="1"/><rect class="qr-module" x="27" y="38" width="1" height="1"/><rect class="qr-module" x="29" y="38" width="1" height="1"/><rect class="qr-module" x="31" y="38" width="1" height="1"/><rect class="qr-module" x="32" y="38" width="1" height="1"/><rect class="qr-module" x="33" y="38" width="1" height="1"/><rect class="qr-module" x="34" y="38" width="1" height="1"/><rect class="qr-module" x="37" y="38" width="1" height="1"/><rect class="qr-module" x="38" y="38" width="1" height="1"/><rect class="qr-module" x="39" y="38" width="1" height="1"/><rect class="qr-module" x="4" y="39" width="1" height="1"/><rect class="qr-module" x="10" y="39" width="1" height="1"/><rect class="qr-module" x="17" y="39" width="1" height="1"/><rect class="qr-module" x="21" y="39" width="1" height="1"/><rect class="qr-module" x="22" y="39" width="1" height="1"/><rect class="qr-module" x="25" y="39" width="1" height="1"/><rect class="qr-module" x="27" y="39" width="1" height="1"/><rect class="qr-module" x="30" y="39" width="1" height="1"/><rect class="qr-module" x="34" y="39" width="1" height="1"/><rect class="qr-module" x="36" y="39" width="1" height="1"/><rect class="qr-module" x="38" y="39" width="1" height="1"/><rect class="qr-module" x="39" y="39" width="1" height="1"/><rect class="qr-module" x="4" y="40" width="1" height="1"/><rect class="qr-module" x="5" y="40" width="1" height="1"/><rect class="qr-module" x="6" y="40" width="1" height="1"/><rect class="qr-module" x="7" y="40" width="1" height="1"/><rect class="qr-module" x="8" y="40" width="1" height="1"/><rect class="qr-module" x="9" y="40" width="1" height="1"/><rect class="qr-module" x="10" y="40" width="1" height="1"/><rect class="qr-module" x="12" y="40" width="1" height="1"/><rect class="qr-module" x="13" y="40" width="1" height="1"/><rect class="qr-module" x="15" y="40" width="1" height="1"/><rect class="qr-module" x="17" y="40" width="1" height="1"/><rect class="qr-module" x="19" y="40" width="1" height="1"/><rect class="qr-module" x="21" y="40" width="1" height="1"/><rect class="qr-module" x="23" y="40" width="1" height="1"/><rect class="qr-module" x="25" y="40" width="1" height="1"/><rect class="qr-module" x="26" y="40" width="1" height="1"/><rect class="qr-module" x="27" y="40" width="1" height="1"/><rect class="qr-module" x="28" y="40" width="1" height="1"/><rect class="qr-module" x="31" y="40" width="1" height="1"/><rect class="qr-module" x="35" y="40" width="1" height="1"/><rect class="qr-module" x="38" y="40" width="1" height="1"/><rect class="qr-module" x="39" y="40" width="1" height="1"/><rect class="qr-module" x="40" y="40" width="1" height="1"/></g></g></g>
<text x="965" y="376" fill="#FFFFFF" font-family="Inter, Avenir Next, Helvetica, Arial, sans-serif" font-size="32" font-weight="800"><tspan x="965" dy="0">Scan to claim</tspan></text>
<text x="965" y="414" fill="#FFFFFF" font-family="Inter, Avenir Next, Helvetica, Arial, sans-serif" font-size="18" font-weight="700"><tspan x="965" dy="0">Spend $25+.</tspan></text>
<text x="965" y="444" fill="#FFFFFF" font-family="Inter, Avenir Next, Helvetica, Arial, sans-serif" font-size="14" font-weight="600"><tspan x="965" dy="0">Get your code at checkout.</tspan></text>
<text x="965" y="472" fill="#F6F0E4" font-family="Inter, Avenir Next, Helvetica, Arial, sans-serif" font-size="10" font-weight="800" letter-spacing="1.2"><tspan x="965" dy="0">PUBLIC OFFER QR</tspan></text>
<text x="44" y="475" fill="#16261F" font-family="Inter, Avenir Next, Helvetica, Arial, sans-serif" font-size="10" font-weight="700"><tspan x="44" dy="0">For the USC community. Not affiliated with or endorsed by USC.</tspan></text>
<g data-use-case="Study"><rect x="44" y="345" width="158.5" height="94" rx="11.28" fill="#FFFFFF"/><rect x="56.68" y="376.64" width="18.189" height="28.294" rx="2.425" fill="none" stroke="#D84A32" stroke-width="2.223" stroke-linecap="round" stroke-linejoin="round"/><rect x="74.869" y="376.64" width="18.189" height="28.294" rx="2.425" fill="none" stroke="#D84A32" stroke-width="2.223" stroke-linecap="round" stroke-linejoin="round"/><line x1="74.869" y1="378.257" x2="74.869" y2="403.318" fill="none" stroke="#D84A32" stroke-width="2.223" stroke-linecap="round" stroke-linejoin="round"/><text x="108.195" y="398.58" fill="#16261F" font-family="Inter, Avenir Next, Helvetica, Arial, sans-serif" font-size="16.92" font-weight="700">Study</text></g>
<g data-use-case="Coding"><rect x="214.5" y="345" width="158.5" height="94" rx="11.28" fill="#FFFFFF"/><rect x="227.18" y="375.024" width="37.186" height="25.869" rx="3.234" fill="none" stroke="#D84A32" stroke-width="2.223" stroke-linecap="round" stroke-linejoin="round"/><line x1="235.264" y1="406.551" x2="256.282" y2="406.551" fill="none" stroke="#D84A32" stroke-width="2.223" stroke-linecap="round" stroke-linejoin="round"/><line x1="240.519" y1="383.916" x2="236.477" y2="387.958" fill="none" stroke="#D84A32" stroke-width="2.223" stroke-linecap="round" stroke-linejoin="round"/><line x1="236.477" y1="387.958" x2="240.519" y2="392" fill="none" stroke="#D84A32" stroke-width="2.223" stroke-linecap="round" stroke-linejoin="round"/><line x1="251.028" y1="383.916" x2="255.07" y2="387.958" fill="none" stroke="#D84A32" stroke-width="2.223" stroke-linecap="round" stroke-linejoin="round"/><line x1="255.07" y1="387.958" x2="251.028" y2="392" fill="none" stroke="#D84A32" stroke-width="2.223" stroke-linecap="round" stroke-linejoin="round"/><text x="278.695" y="398.58" fill="#16261F" font-family="Inter, Avenir Next, Helvetica, Arial, sans-serif" font-size="16.92" font-weight="700">Coding</text></g>
<g data-use-case="Career"><rect x="385" y="345" width="158.5" height="94" rx="11.28" fill="#FFFFFF"/><rect x="397.68" y="381.895" width="37.186" height="23.444" rx="3.234" fill="none" stroke="#D84A32" stroke-width="2.223" stroke-linecap="round" stroke-linejoin="round"/><rect x="409.806" y="375.024" width="12.934" height="8.084" rx="2.021" fill="none" stroke="#D84A32" stroke-width="2.223" stroke-linecap="round" stroke-linejoin="round"/><line x1="397.68" y1="391.192" x2="434.866" y2="391.192" fill="none" stroke="#D84A32" stroke-width="2.223" stroke-linecap="round" stroke-linejoin="round"/><text x="449.195" y="398.58" fill="#16261F" font-family="Inter, Avenir Next, Helvetica, Arial, sans-serif" font-size="16.92" font-weight="700">Career</text></g>
<g data-use-case="Pick My Bowl"><rect x="555.5" y="345" width="158.5" height="94" rx="11.28" fill="#FFFFFF"/><ellipse cx="586.773" cy="386.341" rx="18.189" ry="6.871" fill="none" stroke="#D84A32" stroke-width="2.223" stroke-linecap="round" stroke-linejoin="round"/><path d="M 569.393 387.15 Q 572.626 404.934 586.773 405.743 Q 601.324 404.934 604.154 387.15" fill="none" stroke="#D84A32" stroke-width="2.223" stroke-linecap="round" stroke-linejoin="round"/><line x1="595.666" y1="372.598" x2="602.941" y2="385.937" fill="none" stroke="#D84A32" stroke-width="2.223" stroke-linecap="round" stroke-linejoin="round"/><text x="619.695" y="398.58" fill="#16261F" font-family="Inter, Avenir Next, Helvetica, Arial, sans-serif" font-size="16.92" font-weight="700">Pick My Bowl</text></g>
<text x="44" y="496" fill="#16261F" font-family="Inter, Avenir Next, Helvetica, Arial, sans-serif" font-size="8.8" font-weight="500"><tspan x="44" dy="0">Limited-time YGF promotional Build Credits. Qualifying purchase required. Each distinct eligible code grants 3,000 Credits once; multiple distinct cards may top up</tspan><tspan x="44" dy="11.5">one wallet. A successful new-card top-up sets the entire wallet to expire 14 days later. Non-transferable. No cash value. Eligible AI tasks only. Terms and privacy</tspan><tspan x="44" dy="11.5">apply.</tspan></text>
<text x="44" y="531" fill="#16261F" font-family="Inter, Avenir Next, Helvetica, Arial, sans-serif" font-size="8.8" font-weight="500"><tspan x="44" dy="0">This promotion is offered by YGF for the USC community and is not sponsored, endorsed by, or administered by the University of Southern California.</tspan></text>
</svg>
